<svg width="178" height="176" viewBox="0 0 178 176" fill="none" xmlns="http://www.w3.org/2000/svg">
<g opacity="0.15">
<path d="M175.281 170.623C168.806 170.623 163.491 165.575 163.055 159.21C170.497 155.711 175.663 148.146 175.663 139.394C175.663 127.325 165.845 117.507 153.776 117.507C148.122 117.507 142.962 119.663 139.074 123.195L122.124 93.835C123.042 92.726 124.498 91.0613 126.252 89.3958C129.906 85.926 133.303 83.9385 135.816 83.7989C136.646 83.753 137.404 83.3127 137.855 82.6153C142.661 75.1874 174.796 7.19374 176.162 4.30257C176.753 3.05137 176.261 1.5566 175.042 0.901306C173.823 0.246883 172.305 0.660339 171.587 1.8435L118.987 88.5862L66.3863 1.84307C65.6686 0.660339 64.1508 0.246016 62.9313 0.900872C61.7121 1.55616 61.2202 3.05093 61.8114 4.30214C63.1766 7.1933 95.3118 75.1874 100.118 82.6149C100.569 83.3122 101.327 83.7526 102.157 83.7985C104.671 83.9381 108.068 85.9256 111.721 89.3953C113.475 91.0609 114.931 92.7255 115.849 93.8346L98.8985 123.194C95.0106 119.663 89.8506 117.507 84.1965 117.507C72.1283 117.507 62.3102 127.325 62.3102 139.393C62.3102 151.462 72.1283 161.28 84.1965 161.28C96.2648 161.28 106.083 151.462 106.083 139.393C106.083 134.962 104.755 130.838 102.483 127.388L118.987 98.8021L135.491 127.388C133.219 130.838 131.891 134.963 131.891 139.393C131.891 151.462 141.709 161.28 153.778 161.28C155.224 161.28 156.637 161.135 158.005 160.866C159.223 169.312 166.505 175.823 175.282 175.823C176.718 175.823 177.882 174.658 177.882 173.223C177.882 171.787 176.717 170.623 175.281 170.623ZM148.832 49.3988C142.212 63.0438 136.441 74.6838 134.094 78.7815C132.781 79.0273 131.475 79.4979 130.202 80.1212L148.832 49.3988ZM103.879 78.7815C101.532 74.6838 95.7616 63.0438 89.1411 49.3988L107.771 80.1212C106.499 79.4979 105.193 79.0273 103.879 78.7815ZM84.1961 156.079C74.9956 156.079 67.5105 148.594 67.5105 139.394C67.5105 130.193 74.9956 122.708 84.1961 122.708C93.3966 122.708 100.882 130.193 100.882 139.394C100.882 148.594 93.3966 156.079 84.1961 156.079ZM137.091 139.394C137.091 130.193 144.576 122.708 153.777 122.708C162.977 122.708 170.463 130.193 170.463 139.394C170.463 148.594 162.977 156.079 153.777 156.079C144.576 156.079 137.091 148.594 137.091 139.394Z" fill="white"/>
<path d="M47.2122 5.35866C48.648 5.35866 49.8126 4.19414 49.8126 2.75831C49.8126 1.32248 48.648 0.157951 47.2122 0.157951H12.7349C5.98918 0.157951 0.501564 5.64557 0.501564 12.3909V150.797C0.501564 157.542 5.98918 163.03 12.7349 163.03H47.2126C48.6485 163.03 49.813 161.866 49.813 160.43C49.813 158.994 48.6485 157.83 47.2126 157.83H15.3353V152.941H47.2126C48.6485 152.941 49.813 151.777 49.813 150.341C49.813 148.905 48.6485 147.741 47.2126 147.741H15.3353V142.365H47.2126C48.6485 142.365 49.813 141.201 49.813 139.765C49.813 138.329 48.6485 137.165 47.2126 137.165H15.3353V131.789H47.2126C48.6485 131.789 49.813 130.624 49.813 129.189C49.813 127.753 48.6485 126.588 47.2126 126.588H15.3353V121.213H47.2126C48.6485 121.213 49.813 120.048 49.813 118.612C49.813 117.177 48.6485 116.012 47.2126 116.012H15.3353V110.637H47.2126C48.6485 110.637 49.813 109.472 49.813 108.036C49.813 106.601 48.6485 105.436 47.2126 105.436H15.3353V100.06H47.2126C48.6485 100.06 49.813 98.8957 49.813 97.4598C49.813 96.024 48.6485 94.8595 47.2126 94.8595H15.3353V89.4841H47.2126C48.6485 89.4841 49.813 88.3196 49.813 86.8837C49.813 85.4479 48.6485 84.2834 47.2126 84.2834H15.3353V78.9063H47.2126C48.6485 78.9063 49.813 77.7417 49.813 76.3059C49.813 74.8701 48.6485 73.7056 47.2126 73.7056H15.3353V68.3302H47.2126C48.6485 68.3302 49.813 67.1657 49.813 65.7298C49.813 64.294 48.6485 63.1295 47.2126 63.1295H15.3353V57.7537H47.2126C48.6485 57.7537 49.813 56.5892 49.813 55.1533C49.813 53.7175 48.6485 52.553 47.2126 52.553H15.3353V47.1776H47.2126C48.6485 47.1776 49.813 46.0131 49.813 44.5772C49.813 43.1414 48.6485 41.9769 47.2126 41.9769H15.3353V36.6002H47.2126C48.6485 36.6002 49.813 35.4357 49.813 33.9999C49.813 32.564 48.6485 31.3995 47.2126 31.3995H15.3353V26.0241H47.2126C48.6485 26.0241 49.813 24.8596 49.813 23.4238C49.813 21.9879 48.6485 20.8234 47.2126 20.8234H15.3353V15.4476H47.2126C48.6485 15.4476 49.813 14.2831 49.813 12.8473C49.813 11.4114 48.6485 10.2469 47.2126 10.2469H15.3353V5.35866H47.2122ZM5.70228 150.797V12.3909C5.70228 9.43212 7.54116 6.89938 10.1346 5.8627V157.325C7.54116 156.289 5.70228 153.756 5.70228 150.797Z" fill="white"/>
</g>
</svg>
