<svg width="326" height="460" viewBox="0 0 326 460" fill="none" xmlns="http://www.w3.org/2000/svg">
<g opacity="0.15">
<path d="M64.6587 115.602C65.5677 115.561 66.3276 114.896 66.4874 114C69.2089 98.7498 63.9288 85.2478 53.6384 73.8388C50.6933 70.5737 47.5374 67.7019 44.4722 65.2261C44.881 61.4058 43.4287 57.0441 40.6166 53.8341L35.4881 47.9798C34.9078 47.3174 33.9546 47.1275 33.1647 47.5166C32.3748 47.9056 31.9451 48.7765 32.116 49.6408C32.374 50.9374 32.6351 53.0339 32.5962 55.0289C32.582 55.7581 32.5315 56.3616 32.4599 56.8611C30.2094 55.4952 28.3183 54.4375 27.8497 54.0973C27.1142 53.5643 26.1083 53.61 25.4249 54.2087L22.0375 57.1762C16.0363 52.1351 12.8114 51.8453 12.3528 51.8312C11.3814 51.8011 10.4235 52.4969 10.3408 53.7486C10.2691 54.8325 10.5238 57.9716 14.3525 63.9085L10.7894 67.0298C10.1011 67.6328 9.92627 68.6342 10.3689 69.4353C10.6706 69.9802 11.4389 71.8767 12.4449 74.1565C10.8 74.0844 8.40269 73.702 5.16524 73.0022C3.32904 72.6046 2.0638 74.7851 3.2904 76.1858L8.41886 82.0401C11.0633 85.0588 15.1605 86.9788 19.1139 87.1182C21.2566 90.6613 23.8155 94.369 26.824 97.8718C36.7851 109.469 49.3883 116.285 64.6587 115.602ZM62.9062 111.756C58.6997 111.789 54.664 111.191 50.801 109.968C51.7123 107.626 53.3466 105.386 55.5973 103.413C57.8572 101.434 60.3029 100.107 62.7529 99.5149C63.4424 103.503 63.4957 107.584 62.9062 111.756ZM36.4926 55.032L37.6895 56.3978C39.1361 58.0497 40.1187 60.1385 40.4878 62.1757C38.8952 61.0189 37.3699 59.9808 35.9597 59.0609C36.3243 57.808 36.4698 56.3979 36.4926 55.032ZM26.9016 58.0881C27.7029 58.563 28.7088 59.1398 30.4095 60.189L27.6845 62.5757C26.7271 61.5573 25.8147 60.6348 24.9472 59.8006L26.9016 58.0881ZM27.0168 67.631C28.3374 69.139 28.5061 70.5125 28.4311 72.1999C26.7915 72.0545 25.4065 71.6984 24.0897 70.1952C18.4608 63.7697 16.0422 59.4604 15.0043 56.9104C17.4419 58.2957 21.445 61.2707 27.0168 67.631ZM14.4526 68.9938L16.5874 67.1241C17.3035 68.0894 18.1006 69.1125 18.9878 70.1947L16.0876 72.7353C15.2508 70.8836 14.9407 70.1136 14.4526 68.9938ZM11.346 79.4753L9.89412 77.8185C11.769 78.0689 13.1439 78.1161 14.2143 78.0081C14.9238 79.4889 15.7329 81.0996 16.6452 82.7919C14.6233 82.1932 12.6991 81.0205 11.346 79.4753ZM17.8105 76.399L21.5218 73.1483C24.1857 75.9114 26.9231 75.9958 30.1136 76.2066C31.1859 76.2775 32.1124 75.4659 32.1833 74.3936C32.3802 71.4128 32.7296 68.5549 30.2816 65.474L33.8253 62.3696C49.1419 72.4982 58.5253 83.6559 61.8959 95.7181C58.8145 96.4518 55.785 98.076 53.033 100.487C50.2935 102.886 48.2903 105.662 47.1548 108.607C35.7073 103.658 25.8878 92.8912 17.8105 76.399Z" fill="white"/>
<path d="M50.4694 97.5596C54.5041 94.0246 54.9111 87.866 51.3766 83.8313C47.8416 79.7966 41.6829 79.3896 37.6482 82.9241C33.6135 86.4586 33.2061 92.6172 36.741 96.6524C40.2755 100.687 46.4342 101.094 50.4694 97.5596ZM39.6681 94.0882C37.5472 91.6672 37.7915 87.9716 40.2125 85.8512C42.6335 83.7303 46.3286 83.9745 48.4495 86.3955C50.5699 88.816 50.3262 92.5111 47.9051 94.6325C45.4841 96.7534 41.789 96.5092 39.6681 94.0882Z" fill="white"/>
<path d="M262.255 356.827C261.374 356.599 260.452 357.011 260.036 357.821C252.958 371.6 254.041 386.058 260.528 399.985C262.385 403.971 264.559 407.643 266.762 410.909C265.25 414.441 265.358 419.037 267.103 422.931L270.287 430.033C270.647 430.837 271.503 431.298 272.372 431.158C273.241 431.018 273.908 430.312 273.998 429.435C274.132 428.12 274.498 426.039 275.121 424.144C275.349 423.451 275.574 422.889 275.789 422.432C277.54 424.399 279.037 425.965 279.385 426.428C279.931 427.153 280.906 427.405 281.736 427.033L285.845 425.191C290.102 431.772 293.099 432.995 293.534 433.144C294.453 433.458 295.573 433.074 296.02 431.901C296.407 430.886 297.085 427.811 295.168 421.011L299.49 419.074C300.325 418.699 300.786 417.793 300.598 416.898C300.47 416.288 300.292 414.25 300 411.775C301.551 412.327 303.731 413.396 306.62 415.016C308.258 415.935 310.108 414.222 309.347 412.523L306.163 405.421C304.521 401.759 301.168 398.721 297.43 397.427C296.422 393.411 295.065 389.115 293.217 384.883C287.1 370.872 277.053 360.657 262.255 356.827ZM262.801 361.018C266.832 362.221 270.514 363.978 273.848 366.281C272.289 368.252 270.069 369.914 267.339 371.139C264.597 372.367 261.869 372.918 259.354 372.764C259.865 368.75 261.013 364.833 262.801 361.018ZM271.397 422.997L270.654 421.34C269.756 419.336 269.43 417.051 269.675 414.995C270.858 416.568 272.011 418.008 273.089 419.302C272.373 420.392 271.82 421.698 271.397 422.997ZM281.463 422.891C280.836 422.202 280.044 421.355 278.726 419.853L282.032 418.371C282.648 419.626 283.249 420.776 283.834 421.828L281.463 422.891ZM284.154 413.735C283.335 411.906 283.577 410.543 284.144 408.952C285.668 409.572 286.888 410.319 287.705 412.143C291.2 419.938 292.247 424.767 292.49 427.51C290.567 425.47 287.613 421.451 284.154 413.735ZM296.565 416.121L293.975 417.281C293.574 416.148 293.113 414.936 292.582 413.641L296.101 412.064C296.357 414.08 296.427 414.907 296.565 416.121ZM302.612 407.013L303.513 409.023C301.795 408.234 300.494 407.785 299.439 407.574C299.196 405.95 298.895 404.173 298.52 402.287C300.277 403.453 301.772 405.139 302.612 407.013ZM295.529 408.056L291.027 410.074C289.292 406.651 286.7 405.766 283.712 404.628C282.707 404.245 281.584 404.749 281.201 405.754C280.138 408.545 278.965 411.175 280.4 414.838L276.101 416.766C264.433 402.587 258.739 389.166 259.058 376.646C262.219 376.849 265.592 376.186 268.931 374.689C272.254 373.2 274.984 371.134 276.934 368.652C286.424 376.744 292.65 389.919 295.529 408.056Z" fill="white"/>
<path d="M270.522 378.24C265.627 380.434 263.43 386.202 265.624 391.097C267.819 395.992 273.587 398.189 278.481 395.994C283.376 393.8 285.574 388.033 283.379 383.137C281.185 378.243 275.417 376.046 270.522 378.24ZM279.828 384.729C281.145 387.666 279.826 391.127 276.889 392.444C273.952 393.76 270.492 392.442 269.175 389.505C267.859 386.569 269.177 383.108 272.114 381.791C275.051 380.474 278.511 381.792 279.828 384.729Z" fill="white"/>
<path d="M17.0876 183.955C16.6165 183.833 16.1235 184.053 15.9011 184.487C12.115 191.856 12.6944 199.589 16.1643 207.038C17.1573 209.17 18.32 211.134 19.4984 212.881C18.6895 214.77 18.7472 217.228 19.6809 219.311L21.3837 223.11C21.5764 223.539 22.034 223.786 22.4989 223.711C22.9639 223.636 23.3203 223.259 23.3687 222.79C23.4403 222.086 23.6361 220.973 23.9692 219.96C24.091 219.589 24.2116 219.288 24.3266 219.044C25.2628 220.096 26.0636 220.934 26.2498 221.181C26.5421 221.569 27.0636 221.704 27.507 221.505L29.7049 220.52C31.9817 224.04 33.5851 224.694 33.8173 224.773C34.3093 224.941 34.9083 224.736 35.1472 224.109C35.354 223.566 35.7167 221.921 34.6914 218.284L37.0033 217.248C37.4499 217.048 37.6965 216.563 37.596 216.084C37.5273 215.758 37.4323 214.668 37.2759 213.344C38.1056 213.639 39.2713 214.211 40.8167 215.077C41.6931 215.569 42.6824 214.653 42.2752 213.744L40.5723 209.946C39.6942 207.987 37.9009 206.362 35.9015 205.67C35.3623 203.522 34.6362 201.224 33.648 198.961C30.3761 191.467 25.0024 186.003 17.0876 183.955ZM17.3798 186.196C19.5357 186.84 21.5051 187.78 23.2883 189.011C22.4546 190.066 21.2672 190.954 19.8067 191.609C18.3405 192.266 16.8815 192.561 15.536 192.479C15.8096 190.332 16.4233 188.237 17.3798 186.196ZM21.9776 219.346L21.5801 218.46C21.0998 217.388 20.9254 216.166 21.0566 215.066C21.6892 215.908 22.3061 216.678 22.8826 217.37C22.4995 217.953 22.2037 218.651 21.9776 219.346ZM27.3612 219.29C27.0261 218.921 26.6024 218.468 25.8976 217.665L27.6656 216.872C27.9952 217.543 28.3168 218.158 28.6294 218.721L27.3612 219.29ZM28.8008 214.392C28.3624 213.414 28.4918 212.685 28.7951 211.834C29.6106 212.166 30.2628 212.566 30.7 213.541C32.5691 217.71 33.129 220.293 33.2592 221.76C32.2304 220.669 30.6508 218.519 28.8008 214.392ZM35.4387 215.669L34.0536 216.289C33.8391 215.683 33.5922 215.035 33.3085 214.342L35.1903 213.499C35.3274 214.577 35.365 215.019 35.4387 215.669ZM38.673 210.797L39.1551 211.872C38.2358 211.45 37.5403 211.21 36.976 211.097C36.8458 210.229 36.6851 209.278 36.4843 208.269C37.4241 208.893 38.2238 209.795 38.673 210.797ZM34.8847 211.355L32.4767 212.434C31.5485 210.603 30.1622 210.13 28.564 209.521C28.0269 209.317 27.4258 209.586 27.2211 210.123C26.6524 211.617 26.025 213.023 26.7928 214.983L24.4935 216.013C18.2528 208.43 15.2072 201.251 15.378 194.555C17.0686 194.664 18.8726 194.309 20.6582 193.508C22.4357 192.712 23.8958 191.607 24.9388 190.28C30.0147 194.607 33.3446 201.654 34.8847 211.355Z" fill="white"/>
<path d="M21.5094 195.407C18.8914 196.581 17.7162 199.666 18.8898 202.284C20.0636 204.902 23.1486 206.077 25.7665 204.904C28.3844 203.73 29.5598 200.645 28.386 198.027C27.2125 195.409 24.1275 194.234 21.5094 195.407ZM26.4868 198.878C27.191 200.449 26.4858 202.3 24.9151 203.004C23.3442 203.709 21.4933 203.004 20.789 201.433C20.085 199.862 20.7898 198.011 22.3608 197.307C23.9317 196.602 25.7826 197.308 26.4868 198.878Z" fill="white"/>
<path d="M112.934 425.291C113.063 424.788 112.827 424.262 112.365 424.026C104.497 419.995 96.2483 420.623 88.3049 424.334C86.0316 425.396 83.9378 426.639 82.0751 427.898C80.0587 427.037 77.4362 427.102 75.2151 428.1L71.1645 429.922C70.7062 430.128 70.4435 430.616 70.5239 431.112C70.6044 431.608 71.0079 431.988 71.508 432.039C72.2587 432.115 73.4463 432.322 74.5284 432.676C74.924 432.806 75.2448 432.934 75.5054 433.057C74.3845 434.057 73.4916 434.912 73.2278 435.111C72.8142 435.423 72.6712 435.98 72.8839 436.453L73.9377 438.797C70.1852 441.23 69.4888 442.941 69.4046 443.189C69.226 443.714 69.4458 444.353 70.115 444.607C70.6946 444.827 72.45 445.212 76.3287 444.114L77.4373 446.579C77.6514 447.055 78.1687 447.318 78.6797 447.21C79.0274 447.137 80.1906 447.034 81.6025 446.865C81.2886 447.751 80.6798 448.995 79.7575 450.645C79.2341 451.581 80.2128 452.635 81.1819 452.2L85.2325 450.378C87.3211 449.439 89.0527 447.524 89.7887 445.39C92.0797 444.812 94.5301 444.034 96.9437 442.977C104.935 439.478 110.758 433.738 112.934 425.291ZM110.543 425.605C109.859 427.906 108.858 430.009 107.546 431.913C106.421 431.024 105.471 429.759 104.77 428.201C104.067 426.638 103.751 425.081 103.837 423.646C106.129 423.935 108.365 424.587 110.543 425.605ZM75.1805 430.551L76.1255 430.126C77.2684 429.612 78.5723 429.424 79.7455 429.563C78.8484 430.239 78.0274 430.898 77.2901 431.514C76.6672 431.106 75.922 430.791 75.1805 430.551ZM75.2473 436.295C75.6402 435.937 76.1228 435.484 76.9792 434.731L77.8267 436.616C77.1112 436.969 76.4556 437.313 75.8556 437.647L75.2473 436.295ZM80.4739 437.825C81.5172 437.356 82.2949 437.493 83.2032 437.815C82.8501 438.686 82.4247 439.382 81.3846 439.85C76.9387 441.849 74.1836 442.449 72.6188 442.59C73.7816 441.491 76.0732 439.803 80.4739 437.825ZM79.1204 444.908L78.4565 443.431C79.1028 443.201 79.7941 442.937 80.5327 442.634L81.435 444.64C80.2849 444.788 79.813 444.829 79.1204 444.908ZM84.3215 448.353L83.1751 448.869C83.6246 447.887 83.8799 447.145 83.9996 446.543C84.9261 446.403 85.9401 446.23 87.0158 446.015C86.3516 447.018 85.3905 447.872 84.3215 448.353ZM83.7218 444.312L82.5674 441.744C84.5198 440.752 85.0228 439.272 85.6704 437.566C85.888 436.993 85.5998 436.352 85.0265 436.134C83.4328 435.529 81.9316 434.861 79.8418 435.683L78.7393 433.231C86.8228 426.564 94.4776 423.306 101.622 423.48C101.508 425.284 101.889 427.208 102.745 429.112C103.597 431.007 104.778 432.564 106.195 433.675C101.584 439.096 94.0696 442.657 83.7218 444.312Z" fill="white"/>
<path d="M100.72 430.022C99.4645 427.231 96.1718 425.981 93.3801 427.236C90.5884 428.491 89.3384 431.784 90.5936 434.576C91.8489 437.367 95.1416 438.618 97.9336 437.362C100.725 436.107 101.975 432.814 100.72 430.022ZM97.0229 435.337C95.3478 436.09 93.3719 435.34 92.6189 433.665C91.8657 431.99 92.6157 430.014 94.2908 429.261C95.9656 428.508 97.9413 429.258 98.6948 430.933C99.448 432.608 98.698 434.584 97.0229 435.337Z" fill="white"/>
<path d="M164.194 238.157C163.839 237.246 162.899 236.703 161.932 236.85C145.474 239.358 133.563 249.401 125.515 263.819C123.212 267.945 121.382 272.15 119.923 276.125C115.895 277.031 111.96 280.018 109.667 283.989L105.485 291.233C105.011 292.052 105.148 293.088 105.817 293.757C106.486 294.426 107.521 294.562 108.341 294.089C109.571 293.378 111.614 292.387 113.657 291.736C114.404 291.498 115.036 291.341 115.569 291.241C114.958 294.004 114.536 296.294 114.352 296.888C114.064 297.821 114.458 298.828 115.304 299.317L119.495 301.736C116.442 309.587 117.263 312.968 117.408 313.44C117.713 314.438 118.753 315.172 120.055 314.823C121.182 314.521 124.288 313.176 129.004 307.226L133.413 309.772C134.264 310.263 135.344 310.095 136.006 309.367C136.456 308.872 138.119 307.434 140.091 305.621C140.587 307.32 141.027 309.891 141.435 313.428C141.666 315.433 144.322 315.966 145.323 314.234L149.505 306.99C151.662 303.255 152.197 298.422 150.971 294.351C153.835 290.945 156.722 287.059 159.245 282.786C167.599 268.638 170.172 253.457 164.194 238.157ZM160.888 241.27C162.377 245.539 163.164 249.852 163.257 254.205C160.558 254.089 157.714 253.201 154.928 251.593C152.133 249.979 149.936 247.95 148.486 245.662C152.305 243.58 156.439 242.114 160.888 241.27ZM112.312 287.771L113.288 286.081C114.468 284.037 116.253 282.315 118.198 281.234C117.572 283.255 117.044 285.166 116.596 286.919C115.195 286.982 113.71 287.321 112.312 287.771ZM118.74 296.472C118.946 295.492 119.185 294.269 119.664 292.176L123.035 294.123C122.33 295.449 121.707 296.697 121.159 297.868L118.74 296.472ZM128.41 293.053C129.487 291.188 130.826 290.541 132.569 290.033C132.988 291.752 133.105 293.284 132.031 295.144C127.441 303.094 123.894 307.046 121.658 308.984C122.224 306.025 123.866 300.923 128.41 293.053ZM134.143 305.365L131.502 303.84C132.237 302.777 133.002 301.612 133.796 300.335L137.385 302.407C135.79 303.899 135.114 304.481 134.143 305.365ZM145.883 304.899L144.699 306.95C144.305 304.956 143.878 303.54 143.397 302.489C144.659 301.254 146.018 299.874 147.424 298.36C147.514 300.625 146.987 302.988 145.883 304.899ZM140.516 299.386L135.925 296.735C137.814 293.069 136.953 290.254 136.064 286.935C135.765 285.819 134.618 285.158 133.503 285.457C130.402 286.287 127.373 286.921 125.085 290.477L120.701 287.946C125.707 268.858 133.813 255.45 144.919 247.847C146.732 250.728 149.433 253.249 152.838 255.215C156.227 257.172 159.744 258.25 163.133 258.386C162.059 271.746 154.502 285.462 140.516 299.386Z" fill="white"/>
<path d="M150.746 258.836C145.754 255.954 139.347 257.671 136.465 262.663C133.582 267.656 135.299 274.063 140.291 276.945C145.283 279.827 151.691 278.111 154.573 273.118C157.455 268.126 155.739 261.719 150.746 258.836ZM150.951 271.027C149.222 274.023 145.377 275.053 142.382 273.323C139.387 271.594 138.357 267.75 140.086 264.754C141.815 261.759 145.659 260.729 148.655 262.458C151.651 264.188 152.681 268.032 150.951 271.027Z" fill="white"/>
<path d="M307.194 158.157C306.839 157.246 305.899 156.703 304.932 156.85C288.474 159.358 276.563 169.401 268.515 183.819C266.212 187.945 264.382 192.15 262.923 196.125C258.895 197.031 254.96 200.018 252.667 203.989L248.485 211.233C248.011 212.052 248.148 213.088 248.817 213.757C249.486 214.426 250.521 214.562 251.341 214.089C252.571 213.378 254.614 212.387 256.657 211.736C257.404 211.498 258.036 211.341 258.569 211.241C257.958 214.004 257.536 216.294 257.352 216.888C257.064 217.821 257.458 218.828 258.304 219.317L262.495 221.736C259.442 229.587 260.263 232.968 260.408 233.44C260.713 234.438 261.753 235.172 263.055 234.823C264.182 234.521 267.288 233.176 272.004 227.226L276.413 229.772C277.264 230.263 278.344 230.095 279.006 229.367C279.456 228.872 281.119 227.434 283.091 225.621C283.587 227.32 284.027 229.891 284.435 233.428C284.666 235.433 287.322 235.966 288.323 234.234L292.505 226.99C294.662 223.255 295.197 218.422 293.971 214.351C296.835 210.945 299.722 207.059 302.245 202.786C310.599 188.638 313.172 173.457 307.194 158.157ZM303.888 161.27C305.377 165.539 306.164 169.852 306.257 174.205C303.558 174.089 300.714 173.201 297.928 171.593C295.133 169.979 292.936 167.95 291.486 165.662C295.305 163.58 299.439 162.114 303.888 161.27ZM255.312 207.771L256.288 206.081C257.468 204.037 259.253 202.315 261.198 201.234C260.572 203.255 260.044 205.166 259.596 206.919C258.195 206.982 256.71 207.321 255.312 207.771ZM261.74 216.472C261.946 215.492 262.185 214.269 262.664 212.176L266.035 214.123C265.33 215.449 264.707 216.697 264.159 217.868L261.74 216.472ZM271.41 213.053C272.487 211.188 273.826 210.541 275.569 210.033C275.988 211.752 276.105 213.284 275.031 215.144C270.441 223.094 266.894 227.046 264.658 228.984C265.224 226.025 266.866 220.923 271.41 213.053ZM277.143 225.365L274.502 223.84C275.237 222.777 276.002 221.612 276.796 220.335L280.385 222.407C278.79 223.899 278.114 224.481 277.143 225.365ZM288.883 224.899L287.699 226.95C287.305 224.956 286.878 223.54 286.397 222.489C287.659 221.254 289.018 219.874 290.424 218.36C290.514 220.625 289.987 222.988 288.883 224.899ZM283.516 219.386L278.925 216.735C280.814 213.069 279.953 210.254 279.064 206.935C278.765 205.819 277.618 205.158 276.503 205.457C273.402 206.287 270.373 206.921 268.085 210.477L263.701 207.946C268.707 188.858 276.813 175.45 287.919 167.847C289.732 170.728 292.433 173.249 295.838 175.215C299.227 177.172 302.744 178.25 306.133 178.386C305.059 191.746 297.502 205.462 283.516 219.386Z" fill="white"/>
<path d="M293.746 178.836C288.754 175.954 282.347 177.671 279.465 182.663C276.582 187.656 278.299 194.063 283.291 196.945C288.283 199.827 294.691 198.111 297.573 193.118C300.455 188.126 298.739 181.719 293.746 178.836ZM293.951 191.027C292.222 194.023 288.377 195.053 285.382 193.323C282.387 191.594 281.357 187.75 283.086 184.754C284.815 181.759 288.659 180.729 291.655 182.458C294.651 184.188 295.681 188.032 293.951 191.027Z" fill="white"/>
<path d="M158.873 93.5872C158.417 93.4313 157.914 93.6125 157.662 94.0237C153.369 101.02 153.362 108.701 156.231 116.32C157.052 118.5 158.053 120.527 159.086 122.341C158.145 124.147 158.018 126.579 158.784 128.707L160.181 132.586C160.339 133.025 160.773 133.303 161.238 133.264C161.703 133.225 162.083 132.879 162.166 132.419C162.29 131.73 162.566 130.645 162.971 129.669C163.12 129.312 163.261 129.024 163.393 128.791C164.239 129.9 164.967 130.788 165.133 131.046C165.392 131.452 165.897 131.624 166.35 131.46L168.595 130.652C170.58 134.3 172.115 135.066 172.338 135.162C172.812 135.365 173.419 135.207 173.702 134.605C173.947 134.085 174.428 132.487 173.688 128.818L176.05 127.967C176.506 127.803 176.786 127.343 176.722 126.862C176.679 126.535 176.667 125.451 176.612 124.132C177.409 124.485 178.518 125.138 179.979 126.109C180.808 126.661 181.854 125.83 181.52 124.902L180.123 121.022C179.402 119.021 177.753 117.281 175.829 116.448C175.458 114.286 174.913 111.962 174.107 109.652C171.436 102.004 166.538 96.2044 158.873 93.5872ZM158.994 95.8233C161.075 96.6206 162.95 97.6967 164.619 99.047C163.717 100.026 162.477 100.815 160.985 101.352C159.488 101.892 158.025 102.073 156.702 101.891C157.133 99.7907 157.896 97.7672 158.994 95.8233ZM161.05 128.913L160.724 128.008C160.33 126.913 160.249 125.693 160.461 124.617C161.023 125.495 161.575 126.303 162.092 127.029C161.67 127.577 161.326 128.244 161.05 128.913ZM166.372 129.261C166.069 128.872 165.684 128.393 165.048 127.546L166.854 126.896C167.129 127.584 167.401 128.215 167.668 128.795L166.372 129.261ZM168.161 124.532C167.802 123.532 167.984 122.822 168.348 122.004C169.128 122.393 169.743 122.837 170.101 123.833C171.635 128.091 171.994 130.685 172.013 132.144C171.079 130.989 169.679 128.747 168.161 124.532ZM174.623 126.29L173.208 126.799C173.041 126.185 172.846 125.526 172.618 124.82L174.54 124.128C174.595 125.203 174.599 125.643 174.623 126.29ZM178.183 121.721L178.578 122.819C177.702 122.333 177.033 122.043 176.484 121.89C176.42 121.022 176.333 120.071 176.21 119.06C177.092 119.746 177.814 120.697 178.183 121.721ZM174.399 121.988L171.939 122.873C171.16 120.995 169.826 120.424 168.293 119.702C167.778 119.46 167.164 119.681 166.921 120.196C166.247 121.629 165.522 122.971 166.134 124.964L163.785 125.81C158.189 117.851 155.719 110.532 156.39 103.93C158.052 104.164 159.86 103.949 161.684 103.292C163.5 102.638 165.025 101.657 166.155 100.424C170.844 105.079 173.605 112.29 174.399 121.988Z" fill="white"/>
<path d="M162.383 105.232C159.709 106.195 158.316 109.154 159.279 111.828C160.243 114.502 163.202 115.894 165.876 114.932C168.55 113.969 169.942 111.009 168.979 108.335C168.016 105.661 165.057 104.269 162.383 105.232ZM167.039 109.034C167.617 110.638 166.781 112.414 165.177 112.992C163.573 113.569 161.797 112.734 161.219 111.13C160.642 109.526 161.477 107.75 163.081 107.172C164.686 106.594 166.461 107.429 167.039 109.034Z" fill="white"/>
<path d="M287.545 1.43365C287.21 0.977212 286.602 0.81424 286.083 1.04186C277.248 4.91306 272.089 12.3201 269.747 21.5956C269.077 24.2501 268.683 26.8776 268.463 29.3211C266.344 30.4321 264.59 32.6938 263.902 35.2605L262.648 39.9414C262.506 40.471 262.738 41.0301 263.212 41.3042C263.687 41.5783 264.287 41.4992 264.675 41.1115C265.257 40.5291 266.251 39.6681 267.297 38.9976C267.679 38.7525 268.009 38.5697 268.292 38.4338C268.365 40.0714 268.472 41.4163 268.458 41.7765C268.437 42.3417 268.809 42.8465 269.355 42.9929L272.064 43.7186C271.533 48.5697 272.499 50.339 272.651 50.5812C272.971 51.0944 273.663 51.3492 274.339 50.9587C274.925 50.6205 276.462 49.402 278.209 45.3651L281.058 46.1285C281.608 46.2759 282.187 46.0197 282.448 45.5133C282.626 45.1685 283.341 44.1143 284.173 42.8044C284.705 43.6807 285.337 45.0537 286.095 46.9715C286.525 48.0594 288.092 47.9593 288.392 46.8396L289.646 42.1587C290.293 39.745 289.868 36.9599 288.572 34.8656C289.664 32.5301 290.697 29.9222 291.468 27.1524C294.021 17.9822 293.185 9.10016 287.545 1.43365ZM286.162 3.67209C287.635 5.83754 288.722 8.13345 289.427 10.5559C287.9 10.8951 286.174 10.8249 284.374 10.3429C282.568 9.85858 281.034 9.05245 279.879 7.98934C281.705 6.25188 283.798 4.81135 286.162 3.67209ZM265.95 36.98L266.242 35.8878C266.596 34.5672 267.337 33.3355 268.264 32.4392C268.216 33.6639 268.207 34.8127 268.219 35.8609C267.445 36.106 266.665 36.5189 265.95 36.98ZM270.852 40.8856C270.82 40.3065 270.77 39.5862 270.725 38.3428L272.903 38.9268C272.708 39.7748 272.546 40.5664 272.415 41.3042L270.852 40.8856ZM275.751 37.5222C276.074 36.3167 276.726 35.7539 277.626 35.2084C278.118 36.1073 278.413 36.9474 278.091 38.1493C276.714 43.287 275.322 46.0305 274.361 47.4505C274.234 45.7094 274.388 42.6077 275.751 37.5222ZM280.806 43.5528L279.099 43.0952C279.351 42.3904 279.604 41.6237 279.857 40.7899L282.176 41.4112C281.507 42.4854 281.216 42.9124 280.806 43.5528ZM287.306 41.5317L286.951 42.8567C286.431 41.7997 285.98 41.0718 285.553 40.5552C286.074 39.6754 286.628 38.699 287.188 37.641C287.578 38.8947 287.637 40.2965 287.306 41.5317ZM283.476 39.2512L280.508 38.4559C281.016 36.1206 280.112 34.6748 279.117 32.9506C278.782 32.3711 278.041 32.1726 277.462 32.5071C275.851 33.4372 274.251 34.2458 273.504 36.5793L270.671 35.8201C270.61 24.3868 273.136 15.6678 278.211 9.74736C279.658 11.088 281.547 12.0936 283.748 12.6832C285.938 13.2703 288.068 13.3459 289.985 12.9141C291.387 20.5518 289.214 29.3613 283.476 39.2512Z" fill="white"/>
<path d="M283.12 15.0234C279.894 14.1592 276.566 16.0807 275.701 19.3068C274.837 22.5331 276.759 25.8613 279.985 26.7257C283.211 27.5901 286.539 25.6688 287.404 22.4424C288.268 19.2163 286.346 15.8881 283.12 15.0234ZM285.063 21.8152C284.544 23.751 282.547 24.9041 280.612 24.3852C278.676 23.8665 277.523 21.8697 278.042 19.9339C278.56 17.9985 280.557 16.8454 282.493 17.3639C284.429 17.8826 285.582 19.8794 285.063 21.8152Z" fill="white"/>
</g>
</svg>
