<svg width="326" height="460" viewBox="0 0 326 460" fill="none" xmlns="http://www.w3.org/2000/svg">
<g opacity="0.15">
<path d="M64.2854 115.336C65.1944 115.295 65.9543 114.63 66.1141 113.734C68.8356 98.4835 63.5555 84.9815 53.2651 73.5724C50.32 70.3073 47.1642 67.4356 44.0989 64.9598C44.5077 61.1395 43.0554 56.7778 40.2433 53.5677L35.1148 47.7135C34.5345 47.0511 33.5813 46.8612 32.7914 47.2502C32.0016 47.6393 31.5718 48.5101 31.7427 49.3744C32.0008 50.671 32.2618 52.7676 32.2229 54.7626C32.2087 55.4918 32.1582 56.0952 32.0866 56.5947C29.8361 55.2289 27.945 54.1711 27.4765 53.8309C26.7409 53.2979 25.735 53.3437 25.0516 53.9424L21.6642 56.9098C15.663 51.8687 12.4381 51.5789 11.9795 51.5649C11.0081 51.5347 10.0502 52.2305 9.96746 53.4823C9.89583 54.5662 10.1505 57.7052 13.9792 63.6421L10.4161 66.7635C9.72781 67.3664 9.55298 68.3679 9.99561 69.1689C10.2973 69.7139 11.0656 71.6104 12.0716 73.8902C10.4267 73.818 8.0294 73.4357 4.79195 72.7358C2.95575 72.3383 1.69051 74.5188 2.91711 75.9195L8.04557 81.7737C10.6901 84.7925 14.7873 86.7124 18.7406 86.8518C20.8833 90.3949 23.4422 94.1026 26.4507 97.6054C36.4118 109.203 49.015 116.018 64.2854 115.336ZM62.5329 111.49C58.3264 111.523 54.2907 110.924 50.4277 109.702C51.339 107.36 52.9733 105.119 55.224 103.147C57.4839 101.168 59.9296 99.8402 62.3796 99.2486C63.0691 103.236 63.1224 107.318 62.5329 111.49ZM36.1193 54.7657L37.3162 56.1314C38.7628 57.7833 39.7454 59.8722 40.1145 61.9094C38.5219 60.7525 36.9966 59.7144 35.5864 58.7946C35.9511 57.5416 36.0965 56.1316 36.1193 54.7657ZM26.5283 57.8218C27.3296 58.2967 28.3355 58.8734 30.0362 59.9227L27.3112 62.3093C26.3538 61.2909 25.4414 60.3685 24.574 59.5343L26.5283 57.8218ZM26.6435 67.3647C27.9641 68.8726 28.1328 70.2461 28.0579 71.9335C26.4182 71.7881 25.0332 71.4321 23.7164 69.9289C18.0875 63.5034 15.6689 59.1941 14.631 56.6441C17.0686 58.0294 21.0717 61.0043 26.6435 67.3647ZM14.0793 68.7274L16.2141 66.8577C16.9302 67.8231 17.7273 68.8461 18.6145 69.9284L15.7143 72.469C14.8775 70.6172 14.5674 69.8473 14.0793 68.7274ZM10.9727 79.209L9.52083 77.5522C11.3957 77.8025 12.7707 77.8497 13.841 77.7417C14.5505 79.2225 15.3596 80.8333 16.2719 82.5255C14.25 81.9268 12.3258 80.7542 10.9727 79.209ZM17.4372 76.1326L21.1485 72.8819C23.8124 75.645 26.5498 75.7294 29.7403 75.9403C30.8126 76.0111 31.7391 75.1995 31.81 74.1272C32.0069 71.1465 32.3563 68.2885 29.9083 65.2076L33.452 62.1033C48.7686 72.2318 58.152 83.3895 61.5226 95.4517C58.4412 96.1855 55.4117 97.8096 52.6598 100.22C49.9202 102.62 47.917 105.396 46.7815 108.341C35.334 103.392 25.5145 92.6249 17.4372 76.1326Z" fill="#E17A47"/>
<path d="M50.0961 97.2933C54.1308 93.7583 54.5378 87.5996 51.0033 83.5649C47.4683 79.5302 41.3096 79.1232 37.2749 82.6577C33.2403 86.1922 32.8328 92.3508 36.3677 96.3861C39.9022 100.421 46.0609 100.828 50.0961 97.2933ZM39.2948 93.8218C37.174 91.4008 37.4182 87.7052 39.8392 85.5848C42.2602 83.4639 45.9553 83.7081 48.0762 86.1292C50.1966 88.5496 49.9529 92.2448 47.5318 94.3662C45.1108 96.487 41.4157 96.2429 39.2948 93.8218Z" fill="#E17A47"/>
<path d="M261.881 356.56C261.001 356.332 260.079 356.745 259.663 357.555C252.584 371.334 253.668 385.791 260.155 399.719C262.012 403.704 264.185 407.376 266.389 410.643C264.876 414.175 264.984 418.771 266.73 422.665L269.914 429.767C270.274 430.57 271.129 431.032 271.999 430.892C272.868 430.752 273.534 430.045 273.625 429.169C273.759 427.854 274.125 425.773 274.748 423.877C274.975 423.184 275.201 422.622 275.416 422.166C277.166 424.132 278.663 425.699 279.011 426.161C279.558 426.887 280.533 427.138 281.362 426.767L285.471 424.925C289.728 431.505 292.726 432.729 293.16 432.877C294.08 433.191 295.2 432.807 295.646 431.635C296.033 430.62 296.711 427.544 294.794 420.745L299.117 418.807C299.952 418.433 300.413 417.527 300.225 416.631C300.097 416.022 299.919 413.983 299.627 411.509C301.178 412.061 303.357 413.13 306.246 414.749C307.885 415.668 309.735 413.956 308.973 412.256L305.79 405.155C304.148 401.492 300.795 398.454 297.057 397.16C296.049 393.144 294.691 388.849 292.844 384.617C286.726 370.606 276.679 360.391 261.881 356.56ZM262.428 360.751C266.459 361.955 270.141 363.712 273.474 366.015C271.916 367.986 269.696 369.648 266.965 370.872C264.224 372.101 261.496 372.652 258.98 372.498C259.492 368.484 260.639 364.566 262.428 360.751ZM271.024 422.73L270.281 421.073C269.383 419.07 269.057 416.784 269.302 414.729C270.485 416.302 271.638 417.742 272.716 419.035C272 420.126 271.447 421.431 271.024 422.73ZM281.089 422.625C280.463 421.935 279.671 421.089 278.353 419.587L281.658 418.105C282.275 419.36 282.876 420.509 283.46 421.561L281.089 422.625ZM283.781 413.469C282.961 411.639 283.203 410.277 283.77 408.686C285.295 409.306 286.514 410.053 287.332 411.877C290.826 419.672 291.873 424.501 292.117 427.243C290.193 425.203 287.24 421.184 283.781 413.469ZM296.192 415.855L293.602 417.015C293.201 415.882 292.739 414.67 292.209 413.375L295.727 411.798C295.983 413.814 296.054 414.641 296.192 415.855ZM302.239 406.747L303.14 408.757C301.421 407.967 300.121 407.518 299.066 407.307C298.822 405.684 298.522 403.906 298.147 402.021C299.904 403.187 301.399 404.873 302.239 406.747ZM295.156 407.79L290.654 409.808C288.918 406.384 286.326 405.5 283.338 404.362C282.334 403.979 281.21 404.483 280.828 405.487C279.764 408.279 278.591 410.908 280.027 414.572L275.728 416.499C264.06 402.32 258.366 388.899 258.685 376.379C261.846 376.582 265.219 375.919 268.557 374.423C271.88 372.933 274.61 370.868 276.56 368.386C286.051 376.477 292.276 389.653 295.156 407.79Z" fill="#E17A47"/>
<path d="M270.148 377.973C265.254 380.168 263.057 385.936 265.251 390.83C267.445 395.725 273.213 397.922 278.108 395.728C283.002 393.534 285.2 387.766 283.005 382.871C280.811 377.977 275.043 375.779 270.148 377.973ZM279.455 384.463C280.771 387.4 279.453 390.861 276.516 392.177C273.579 393.494 270.118 392.176 268.802 389.239C267.485 386.302 268.803 382.841 271.74 381.524C274.677 380.208 278.138 381.526 279.455 384.463Z" fill="#E17A47"/>
<path d="M16.7142 183.688C16.2431 183.566 15.7501 183.787 15.5277 184.22C11.7415 191.59 12.321 199.323 15.7909 206.772C16.7839 208.904 17.9465 210.867 19.125 212.615C18.3161 214.504 18.3738 216.962 19.3075 219.045L21.0103 222.843C21.203 223.273 21.6605 223.52 22.1255 223.445C22.5905 223.37 22.9469 222.992 22.9953 222.524C23.0669 221.82 23.2627 220.707 23.5958 219.693C23.7176 219.323 23.8382 219.022 23.9532 218.778C24.8894 219.83 25.6902 220.667 25.8763 220.915C26.1687 221.303 26.6902 221.437 27.1336 221.239L29.3315 220.253C31.6083 223.773 33.2117 224.428 33.4439 224.507C33.9359 224.675 34.5349 224.47 34.7737 223.843C34.9806 223.3 35.3433 221.655 34.318 218.018L36.6299 216.982C37.0765 216.781 37.3231 216.297 37.2226 215.818C37.1539 215.492 37.0589 214.401 36.9025 213.078C37.7322 213.373 38.8979 213.945 40.4432 214.811C41.3196 215.303 42.3089 214.387 41.9018 213.478L40.1989 209.679C39.3208 207.721 37.5275 206.095 35.528 205.403C34.9889 203.255 34.2628 200.958 33.2746 198.695C30.0027 191.201 24.629 185.737 16.7142 183.688ZM17.0064 185.93C19.1623 186.573 21.1317 187.513 22.9149 188.745C22.0811 189.799 20.8938 190.688 19.4333 191.343C17.9671 192 16.5081 192.295 15.1626 192.213C15.4362 190.065 16.0499 187.97 17.0064 185.93ZM21.6042 219.08L21.2066 218.194C20.7264 217.122 20.552 215.9 20.6832 214.8C21.3158 215.642 21.9326 216.412 22.5092 217.104C22.1261 217.687 21.8303 218.385 21.6042 219.08ZM26.9878 219.023C26.6527 218.655 26.229 218.202 25.5241 217.398L27.2922 216.606C27.6217 217.277 27.9434 217.892 28.2559 218.455L26.9878 219.023ZM28.4274 214.126C27.989 213.148 28.1184 212.419 28.4217 211.568C29.2372 211.9 29.8894 212.299 30.3266 213.275C32.1956 217.444 32.7556 220.027 32.8858 221.494C31.857 220.403 30.2774 218.253 28.4274 214.126ZM35.0653 215.402L33.6802 216.023C33.4657 215.417 33.2187 214.769 32.9351 214.076L34.8169 213.232C34.9539 214.311 34.9916 214.753 35.0653 215.402ZM38.2996 210.531L38.7817 211.606C37.8624 211.184 37.1668 210.944 36.6026 210.831C36.4724 209.962 36.3117 209.012 36.1109 208.003C37.0507 208.627 37.8503 209.528 38.2996 210.531ZM34.5112 211.089L32.1033 212.168C31.1751 210.337 29.7888 209.864 28.1906 209.255C27.6535 209.051 27.0523 209.32 26.8477 209.857C26.279 211.35 25.6516 212.757 26.4194 214.716L24.1201 215.747C17.8794 208.163 14.8338 200.985 15.0045 194.288C16.6952 194.397 18.4992 194.042 20.2848 193.242C22.0623 192.445 23.5224 191.341 24.5654 190.013C29.6413 194.341 32.9712 201.388 34.5112 211.089Z" fill="#E17A47"/>
<path d="M21.136 195.141C18.518 196.315 17.3428 199.4 18.5164 202.018C19.6902 204.636 22.7752 205.811 25.3931 204.637C28.011 203.464 29.1864 200.379 28.0127 197.761C26.8391 195.143 23.7541 193.968 21.136 195.141ZM26.1134 198.612C26.8176 200.183 26.1124 202.034 24.5417 202.738C22.9708 203.442 21.1199 202.737 20.4157 201.166C19.7116 199.596 20.4164 197.745 21.9874 197.04C23.5583 196.336 25.4092 197.041 26.1134 198.612Z" fill="#E17A47"/>
<path d="M112.561 425.025C112.69 424.522 112.454 423.996 111.992 423.759C104.124 419.729 95.875 420.356 87.9316 424.067C85.6583 425.129 83.5645 426.372 81.7019 427.632C79.6854 426.771 77.0629 426.835 74.8418 427.834L70.7913 429.655C70.3329 429.862 70.0702 430.35 70.1506 430.846C70.2311 431.342 70.6346 431.722 71.1348 431.773C71.8854 431.848 73.073 432.056 74.1551 432.41C74.5507 432.54 74.8715 432.668 75.1321 432.79C74.0112 433.79 73.1184 434.646 72.8545 434.845C72.4409 435.157 72.298 435.714 72.5106 436.186L73.5645 438.53C69.8119 440.964 69.1155 442.675 69.0313 442.923C68.8527 443.448 69.0725 444.087 69.7417 444.341C70.3213 444.561 72.0767 444.946 75.9554 443.848L77.064 446.313C77.2781 446.789 77.7954 447.052 78.3064 446.944C78.6541 446.87 79.8173 446.767 81.2292 446.599C80.9153 447.485 80.3065 448.729 79.3843 450.379C78.8608 451.314 79.8395 452.369 80.8086 451.933L84.8592 450.112C86.9478 449.173 88.6794 447.257 89.4154 445.123C91.7064 444.545 94.1568 443.768 96.5704 442.711C104.562 439.211 110.384 433.471 112.561 425.025ZM110.169 425.339C109.485 427.64 108.485 429.742 107.173 431.646C106.047 430.758 105.098 429.492 104.397 427.935C103.694 426.371 103.378 424.815 103.464 423.379C105.755 423.669 107.991 424.321 110.169 425.339ZM74.8072 430.284L75.7522 429.859C76.8951 429.346 78.199 429.158 79.3722 429.297C78.4752 429.973 77.6541 430.632 76.9168 431.248C76.2939 430.84 75.5487 430.525 74.8072 430.284ZM74.874 436.028C75.2669 435.67 75.7495 435.218 76.6059 434.465L77.4534 436.35C76.7379 436.702 76.0823 437.046 75.4823 437.381L74.874 436.028ZM80.1006 437.558C81.1439 437.089 81.9216 437.226 82.8299 437.549C82.4768 438.419 82.0514 439.116 81.0113 439.583C76.5655 441.583 73.8103 442.183 72.2455 442.324C73.4083 441.225 75.6999 439.537 80.1006 437.558ZM78.7471 444.642L78.0832 443.165C78.7295 442.935 79.4208 442.671 80.1594 442.367L81.0617 444.374C79.9116 444.522 79.4397 444.562 78.7471 444.642ZM83.9482 448.086L82.8018 448.602C83.2513 447.621 83.5066 446.878 83.6263 446.276C84.5528 446.136 85.5668 445.964 86.6425 445.748C85.9783 446.752 85.0173 447.606 83.9482 448.086ZM83.3485 444.045L82.1941 441.478C84.1465 440.485 84.6495 439.006 85.2971 437.3C85.5148 436.726 85.2265 436.085 84.6532 435.868C83.0595 435.263 81.5583 434.595 79.4685 435.417L78.366 432.965C86.4495 426.297 94.1043 423.039 101.249 423.213C101.135 425.017 101.516 426.942 102.372 428.846C103.224 430.741 104.405 432.298 105.822 433.409C101.211 438.829 93.6963 442.391 83.3485 444.045Z" fill="#E17A47"/>
<path d="M100.347 429.756C99.0913 426.964 95.7985 425.714 93.0069 426.97C90.2152 428.225 88.9651 431.518 90.2204 434.31C91.4756 437.101 94.7683 438.352 97.5603 437.096C100.352 435.841 101.602 432.548 100.347 429.756ZM96.6496 435.071C94.9745 435.824 92.9986 435.074 92.2457 433.399C91.4924 431.724 92.2424 429.748 93.9176 428.995C95.5923 428.242 97.568 428.992 98.3215 430.667C99.0747 432.342 98.3247 434.318 96.6496 435.071Z" fill="#E17A47"/>
<path d="M163.821 237.89C163.465 236.979 162.526 236.436 161.558 236.584C145.1 239.091 133.19 249.135 125.142 263.553C122.839 267.679 121.009 271.883 119.55 275.859C115.522 276.764 111.586 279.751 109.293 283.723L105.111 290.967C104.638 291.786 104.775 292.822 105.444 293.491C106.113 294.16 107.148 294.296 107.968 293.823C109.198 293.112 111.241 292.121 113.284 291.47C114.031 291.232 114.662 291.075 115.195 290.975C114.584 293.737 114.162 296.027 113.978 296.622C113.691 297.554 114.085 298.562 114.931 299.05L119.122 301.47C116.069 309.32 116.89 312.702 117.034 313.173C117.34 314.172 118.379 314.906 119.681 314.557C120.809 314.255 123.915 312.91 128.631 306.96L133.039 309.505C133.891 309.997 134.97 309.828 135.632 309.101C136.082 308.605 137.746 307.167 139.718 305.355C140.213 307.054 140.654 309.625 141.062 313.161C141.293 315.167 143.949 315.7 144.95 313.967L149.132 306.724C151.288 302.989 151.824 298.156 150.598 294.085C153.462 290.679 156.349 286.793 158.872 282.52C167.225 268.372 169.799 253.191 163.821 237.89ZM160.514 241.004C162.004 245.272 162.791 249.586 162.883 253.939C160.185 253.822 157.34 252.935 154.555 251.327C151.759 249.712 149.562 247.683 148.113 245.395C151.931 243.314 156.066 241.848 160.514 241.004ZM111.939 287.505L112.915 285.814C114.095 283.771 115.88 282.048 117.825 280.968C117.199 282.989 116.671 284.9 116.223 286.653C114.822 286.715 113.337 287.055 111.939 287.505ZM118.367 296.206C118.573 295.226 118.812 294.003 119.291 291.91L122.662 293.856C121.957 295.183 121.334 296.43 120.785 297.602L118.367 296.206ZM128.036 292.787C129.114 290.921 130.453 290.274 132.196 289.767C132.615 291.485 132.732 293.018 131.658 294.878C127.068 302.828 123.52 306.78 121.285 308.718C121.851 305.759 123.493 300.656 128.036 292.787ZM133.77 305.099L131.129 303.573C131.864 302.511 132.629 301.346 133.423 300.069L137.011 302.141C135.417 303.633 134.741 304.215 133.77 305.099ZM145.509 304.633L144.326 306.683C143.932 304.689 143.504 303.274 143.024 302.222C144.285 300.988 145.644 299.607 147.05 298.094C147.141 300.358 146.613 302.722 145.509 304.633ZM140.143 299.12L135.551 296.469C137.441 292.802 136.58 289.988 135.69 286.669C135.391 285.553 134.245 284.891 133.13 285.19C130.029 286.021 127 286.654 124.712 290.211L120.328 287.68C125.334 268.591 133.439 255.184 144.546 247.581C146.359 250.462 149.059 252.983 152.464 254.948C155.854 256.906 159.371 257.983 162.76 258.12C161.686 271.479 154.128 285.196 140.143 299.12Z" fill="#E17A47"/>
<path d="M150.373 258.57C145.38 255.688 138.973 257.404 136.091 262.397C133.209 267.389 134.926 273.796 139.918 276.678C144.91 279.561 151.317 277.844 154.2 272.852C157.082 267.859 155.365 261.452 150.373 258.57ZM150.578 270.761C148.849 273.756 145.004 274.786 142.009 273.057C139.014 271.327 137.984 267.483 139.713 264.488C141.442 261.493 145.286 260.462 148.282 262.191C151.278 263.921 152.308 267.765 150.578 270.761Z" fill="#E17A47"/>
<path d="M306.821 157.89C306.465 156.979 305.526 156.436 304.558 156.584C288.1 159.091 276.19 169.135 268.142 183.553C265.839 187.679 264.009 191.883 262.55 195.859C258.522 196.764 254.586 199.751 252.293 203.723L248.111 210.967C247.638 211.786 247.775 212.822 248.444 213.491C249.113 214.16 250.148 214.296 250.968 213.823C252.198 213.112 254.241 212.121 256.284 211.47C257.031 211.232 257.662 211.075 258.195 210.975C257.584 213.737 257.162 216.027 256.978 216.622C256.691 217.554 257.085 218.562 257.931 219.05L262.122 221.47C259.069 229.32 259.89 232.702 260.034 233.173C260.34 234.172 261.379 234.906 262.681 234.557C263.809 234.255 266.915 232.91 271.631 226.96L276.039 229.505C276.891 229.997 277.97 229.828 278.632 229.101C279.082 228.605 280.746 227.167 282.718 225.355C283.213 227.054 283.654 229.625 284.062 233.161C284.293 235.167 286.949 235.7 287.95 233.967L292.132 226.724C294.288 222.989 294.824 218.156 293.598 214.085C296.462 210.679 299.349 206.793 301.872 202.52C310.225 188.372 312.799 173.191 306.821 157.89ZM303.514 161.004C305.004 165.272 305.791 169.586 305.883 173.939C303.185 173.822 300.34 172.935 297.555 171.327C294.759 169.712 292.562 167.683 291.113 165.395C294.931 163.314 299.066 161.848 303.514 161.004ZM254.939 207.505L255.915 205.814C257.095 203.771 258.88 202.048 260.825 200.968C260.199 202.989 259.671 204.9 259.223 206.653C257.822 206.715 256.337 207.055 254.939 207.505ZM261.367 216.206C261.573 215.226 261.812 214.003 262.291 211.91L265.662 213.856C264.957 215.183 264.334 216.43 263.785 217.602L261.367 216.206ZM271.036 212.787C272.114 210.921 273.453 210.274 275.196 209.767C275.615 211.485 275.732 213.018 274.658 214.878C270.068 222.828 266.52 226.78 264.285 228.718C264.851 225.759 266.493 220.656 271.036 212.787ZM276.77 225.099L274.129 223.573C274.864 222.511 275.629 221.346 276.423 220.069L280.011 222.141C278.417 223.633 277.741 224.215 276.77 225.099ZM288.509 224.633L287.326 226.683C286.932 224.689 286.504 223.274 286.024 222.222C287.285 220.988 288.644 219.607 290.05 218.094C290.141 220.358 289.613 222.722 288.509 224.633ZM283.143 219.12L278.551 216.469C280.441 212.802 279.58 209.988 278.69 206.669C278.391 205.553 277.245 204.891 276.13 205.19C273.029 206.021 270 206.654 267.712 210.211L263.328 207.68C268.334 188.591 276.439 175.184 287.546 167.581C289.359 170.462 292.059 172.983 295.464 174.948C298.854 176.906 302.371 177.983 305.76 178.12C304.686 191.479 297.128 205.196 283.143 219.12Z" fill="#E17A47"/>
<path d="M293.373 178.57C288.38 175.688 281.973 177.404 279.091 182.397C276.209 187.389 277.926 193.796 282.918 196.678C287.91 199.561 294.317 197.844 297.2 192.852C300.082 187.859 298.365 181.452 293.373 178.57ZM293.578 190.761C291.849 193.756 288.004 194.786 285.009 193.057C282.014 191.327 280.984 187.483 282.713 184.488C284.442 181.493 288.286 180.462 291.282 182.191C294.278 183.921 295.308 187.765 293.578 190.761Z" fill="#E17A47"/>
<path d="M158.5 93.3209C158.044 93.165 157.54 93.3461 157.288 93.7573C152.996 100.753 152.988 108.435 155.857 116.053C156.678 118.234 157.68 120.261 158.713 122.075C157.772 123.88 157.645 126.313 158.411 128.44L159.808 132.32C159.966 132.759 160.4 133.037 160.864 132.998C161.329 132.959 161.71 132.612 161.793 132.153C161.916 131.463 162.193 130.379 162.598 129.402C162.746 129.045 162.888 128.757 163.02 128.525C163.866 129.634 164.594 130.522 164.759 130.78C165.019 131.185 165.524 131.357 165.977 131.194L168.222 130.386C170.207 134.033 171.742 134.8 171.965 134.896C172.438 135.098 173.046 134.941 173.329 134.339C173.574 133.818 174.055 132.221 173.315 128.551L175.676 127.701C176.133 127.537 176.413 127.077 176.349 126.596C176.306 126.269 176.294 125.185 176.238 123.865C177.036 124.219 178.144 124.871 179.606 125.843C180.435 126.394 181.481 125.563 181.147 124.635L179.749 120.755C179.029 118.755 177.379 117.015 175.456 116.182C175.085 114.019 174.54 111.695 173.733 109.386C171.063 101.738 166.165 95.9381 158.5 93.3209ZM158.621 95.5569C160.702 96.3542 162.577 97.4303 164.246 98.7806C163.343 99.7596 162.104 100.549 160.612 101.086C159.115 101.625 157.651 101.807 156.328 101.625C156.76 99.5243 157.523 97.5008 158.621 95.5569ZM160.677 128.647L160.351 127.742C159.957 126.647 159.876 125.427 160.088 124.35C160.65 125.229 161.201 126.036 161.719 126.763C161.297 127.31 160.952 127.978 160.677 128.647ZM165.999 128.995C165.696 128.606 165.311 128.127 164.675 127.28L166.481 126.63C166.756 127.317 167.028 127.949 167.294 128.528L165.999 128.995ZM167.788 124.265C167.428 123.266 167.611 122.556 167.974 121.738C168.755 122.127 169.369 122.57 169.728 123.567C171.262 127.825 171.621 130.419 171.64 131.877C170.705 130.722 169.306 128.481 167.788 124.265ZM174.249 126.024L172.835 126.533C172.668 125.918 172.473 125.259 172.245 124.554L174.167 123.862C174.221 124.937 174.225 125.377 174.249 126.024ZM177.809 121.454L178.205 122.552C177.329 122.066 176.66 121.777 176.111 121.623C176.047 120.755 175.96 119.804 175.837 118.793C176.719 119.48 177.441 120.43 177.809 121.454ZM174.026 121.721L171.566 122.607C170.786 120.728 169.453 120.157 167.919 119.436C167.404 119.194 166.79 119.415 166.548 119.93C165.874 121.362 165.149 122.704 165.76 124.698L163.412 125.544C157.816 117.584 155.346 110.265 156.017 103.663C157.678 103.898 159.487 103.682 161.311 103.026C163.126 102.372 164.652 101.39 165.781 100.157C170.471 104.813 173.232 112.024 174.026 121.721Z" fill="#E17A47"/>
<path d="M162.009 104.966C159.335 105.929 157.943 108.888 158.906 111.562C159.869 114.236 162.828 115.628 165.502 114.665C168.176 113.702 169.569 110.743 168.606 108.069C167.643 105.395 164.683 104.003 162.009 104.966ZM166.666 108.767C167.244 110.372 166.408 112.148 164.804 112.725C163.199 113.303 161.424 112.468 160.846 110.863C160.268 109.259 161.103 107.484 162.708 106.906C164.312 106.328 166.088 107.163 166.666 108.767Z" fill="#E17A47"/>
<path d="M287.172 1.16754C286.836 0.711099 286.229 0.548126 285.71 0.775747C276.875 4.64694 271.715 12.054 269.374 21.3295C268.703 23.984 268.31 26.6115 268.09 29.055C265.971 30.166 264.216 32.4277 263.529 34.9944L262.274 39.6752C262.133 40.2049 262.364 40.7639 262.839 41.038C263.314 41.3122 263.913 41.2331 264.302 40.8454C264.883 40.2629 265.878 39.402 266.924 38.7315C267.306 38.4863 267.636 38.3036 267.919 38.1677C267.991 39.8053 268.099 41.1502 268.085 41.5104C268.064 42.0756 268.436 42.5804 268.982 42.7268L271.691 43.4525C271.159 48.3036 272.126 50.0729 272.277 50.3151C272.598 50.8283 273.29 51.0831 273.966 50.6926C274.552 50.3544 276.088 49.1358 277.835 45.099L280.684 45.8624C281.235 46.0098 281.813 45.7536 282.075 45.2472C282.252 44.9024 282.968 43.8482 283.799 42.5383C284.332 43.4146 284.964 44.7876 285.722 46.7054C286.152 47.7933 287.719 47.6932 288.019 46.5734L289.273 41.8926C289.92 39.4789 289.495 36.6937 288.199 34.5995C289.29 32.2639 290.323 29.656 291.095 26.8863C293.648 17.7161 292.812 8.83404 287.172 1.16754ZM285.788 3.40597C287.262 5.57143 288.349 7.86734 289.054 10.2898C287.526 10.629 285.801 10.5588 284.001 10.0768C282.194 9.59246 280.661 8.78633 279.506 7.72323C281.331 5.98577 283.425 4.54523 285.788 3.40597ZM265.576 36.7139L265.869 35.6216C266.223 34.3011 266.964 33.0694 267.89 32.1731C267.843 33.3978 267.834 34.5466 267.846 35.5948C267.071 35.8399 266.291 36.2528 265.576 36.7139ZM270.479 40.6195C270.447 40.0404 270.397 39.3201 270.351 38.0767L272.53 38.6607C272.334 39.5087 272.173 40.3003 272.041 41.038L270.479 40.6195ZM275.377 37.2561C275.701 36.0505 276.353 35.4877 277.252 34.9423C277.745 35.8412 278.04 36.6813 277.718 37.8832C276.341 43.0209 274.948 45.7644 273.988 47.1844C273.861 45.4433 274.015 42.3416 275.377 37.2561ZM280.432 43.2866L278.726 42.8291C278.977 42.1243 279.231 41.3576 279.484 40.5238L281.803 41.1451C281.134 42.2193 280.843 42.6463 280.432 43.2866ZM286.932 41.2656L286.578 42.5906C286.058 41.5336 285.607 40.8057 285.18 40.2891C285.701 39.4093 286.254 38.4329 286.814 37.3749C287.204 38.6286 287.264 40.0304 286.932 41.2656ZM283.102 38.9851L280.135 38.1898C280.643 35.8545 279.739 34.4086 278.743 32.6844C278.409 32.105 277.668 31.9065 277.089 32.241C275.478 33.171 273.878 33.9797 273.131 36.3132L270.297 35.554C270.236 24.1207 272.762 15.4016 277.838 9.48125C279.284 10.8219 281.174 11.8275 283.374 12.4171C285.564 13.0042 287.695 13.0798 289.612 12.648C291.014 20.2857 288.841 29.0951 283.102 38.9851Z" fill="#E17A47"/>
<path d="M282.747 14.7571C279.521 13.8928 276.193 15.8144 275.328 19.0404C274.464 22.2667 276.385 25.5949 279.612 26.4593C282.838 27.3237 286.166 25.4025 287.03 22.176C287.895 18.95 285.973 15.6218 282.747 14.7571ZM284.69 21.5489C284.171 23.4847 282.174 24.6377 280.239 24.1189C278.303 23.6002 277.15 21.6033 277.669 19.6675C278.187 17.7322 280.184 16.579 282.12 17.0975C284.056 17.6162 285.209 19.6131 284.69 21.5489Z" fill="#E17A47"/>
</g>
</svg>
