<svg width="507" height="786" viewBox="0 0 507 786" fill="none" xmlns="http://www.w3.org/2000/svg">
<g opacity="0.2">
<path d="M173.531 240.294C173.508 239.067 174.046 237.901 175.046 237.012C175.568 236.547 176.183 236.187 176.856 235.945L176.728 229.13C174.117 227.822 172.344 225.418 172.292 222.638L172.292 222.638C172.243 219.985 173.763 217.512 176.359 216.023C176.812 215.764 177.369 215.673 177.898 215.774C178.427 215.874 178.882 216.156 179.156 216.554C180.089 217.907 181.813 218.723 183.655 218.682L204.293 218.228C206.716 218.175 209.008 218.93 210.748 220.354C212.488 221.778 213.468 223.701 213.506 225.768C213.556 228.421 212.036 230.893 209.439 232.382C208.986 232.642 208.43 232.732 207.901 232.632C207.602 232.575 207.326 232.46 207.093 232.299L207.143 234.96L269.563 233.586C271.001 233.555 272.361 234.003 273.393 234.848C274.426 235.693 275.007 236.834 275.03 238.06C275.054 239.327 274.472 240.488 273.513 241.341C272.554 242.194 271.219 242.738 269.735 242.771L178.998 244.767C177.56 244.799 176.2 244.351 175.168 243.506C174.135 242.661 173.554 241.52 173.531 240.294ZM181.505 230.178C181.235 230.184 180.967 230.179 180.702 230.165L180.802 235.539L183.435 235.481L183.335 230.137L181.505 230.178ZM189.921 229.992L187.288 230.05L187.388 235.394L190.02 235.336L189.921 229.992ZM193.973 235.25L196.606 235.192L196.506 229.848L193.873 229.906L193.973 235.25ZM202.08 226.351C203.344 226.323 204.576 226.522 205.707 226.915C205.792 226.94 205.875 226.97 205.954 227.004C206.921 227.369 207.808 227.878 208.571 228.509C209.219 227.749 209.572 226.823 209.554 225.855C209.532 224.688 208.979 223.604 207.998 222.8C207.016 221.997 205.723 221.571 204.356 221.601L183.718 222.055C181.269 222.109 178.937 221.31 177.227 219.897C176.58 220.657 176.227 221.583 176.245 222.551C176.289 224.958 178.621 226.867 181.442 226.804L191.81 226.576C191.818 226.576 191.826 226.576 191.834 226.576C191.841 226.575 191.849 226.575 191.857 226.575L202.08 226.351ZM203.093 229.779C202.782 229.735 202.464 229.716 202.143 229.724L200.458 229.761L200.558 235.105L203.191 235.047L203.093 229.779ZM178.935 241.394L269.672 239.398C270.459 239.38 271.09 238.819 271.078 238.147C271.065 237.475 270.414 236.942 269.626 236.96L192.062 238.666C192.061 238.666 192.06 238.666 192.06 238.666C192.059 238.666 192.058 238.666 192.058 238.666L178.889 238.956C178.102 238.973 177.471 239.534 177.483 240.207C177.489 240.532 177.644 240.835 177.918 241.059C178.192 241.284 178.553 241.403 178.935 241.394Z" fill="#EDC959"/>
<path d="M378.747 479.764C380.04 479.226 381.505 479.149 382.874 479.545C383.587 479.752 384.23 480.074 384.773 480.492L391.953 477.508C392.236 474.935 394.038 472.547 396.968 471.329L396.968 471.329C399.764 470.168 403.033 470.296 405.713 471.672C406.181 471.912 406.512 472.304 406.629 472.755C406.747 473.207 406.64 473.678 406.334 474.059C405.292 475.353 405.156 477.031 405.98 478.438L415.201 494.198C416.284 496.048 416.453 498.139 415.678 500.087C414.903 502.035 413.276 503.607 411.098 504.512C408.302 505.674 405.034 505.546 402.353 504.17C401.885 503.929 401.554 503.538 401.437 503.086C401.37 502.831 401.376 502.569 401.448 502.321L398.644 503.486L426.535 551.154C427.177 552.251 427.278 553.492 426.818 554.648C426.358 555.804 425.393 556.737 424.1 557.274C422.766 557.828 421.287 557.87 419.975 557.49C418.663 557.11 417.52 556.309 416.857 555.176L376.312 485.884C375.67 484.786 375.57 483.545 376.03 482.389C376.49 481.233 377.455 480.301 378.747 479.764ZM392.864 481.644C392.744 481.437 392.635 481.228 392.537 481.017L386.874 483.371L388.051 485.381L393.682 483.041L392.864 481.644ZM396.625 488.07L395.448 486.059L389.817 488.4L390.993 490.41L396.625 488.07ZM392.759 493.428L393.936 495.439L399.567 493.099L398.391 491.088L392.759 493.428ZM405.64 495.927C406.205 496.892 406.516 497.928 406.577 498.97C406.586 499.046 406.59 499.122 406.587 499.198C406.609 500.1 406.444 501.001 406.097 501.858C407.179 502.037 408.311 501.918 409.332 501.494C410.561 500.983 411.478 500.096 411.916 498.998C412.353 497.899 412.257 496.719 411.647 495.675L402.425 479.915C401.33 478.044 401.191 475.904 401.968 473.983C400.887 473.804 399.754 473.924 398.734 474.348C396.197 475.402 395.158 478.012 396.419 480.166L401.051 488.084C401.055 488.09 401.059 488.096 401.062 488.102C401.066 488.108 401.069 488.114 401.073 488.12L405.64 495.927ZM402.43 498.161C402.344 497.903 402.23 497.649 402.086 497.404L401.333 496.117L395.702 498.458L396.878 500.468L402.43 498.161ZM379.867 484.407L420.411 553.699C420.763 554.3 421.626 554.55 422.334 554.256C423.043 553.961 423.333 553.232 422.981 552.631L388.323 493.398C388.322 493.398 388.322 493.397 388.322 493.397C388.321 493.396 388.321 493.395 388.321 493.395L382.437 483.339C382.085 482.738 381.222 482.487 380.513 482.782C380.17 482.924 379.914 483.172 379.792 483.479C379.67 483.786 379.697 484.115 379.867 484.407Z" fill="#EDC959"/>
<path d="M166.74 353.364C167.196 354.528 167.095 355.777 166.457 356.883C166.124 357.46 165.665 357.962 165.109 358.367L167.642 364.83C170.595 365.404 173.135 367.239 174.169 369.876L174.168 369.876C175.154 372.393 174.58 375.142 172.632 377.23C172.292 377.595 171.794 377.824 171.254 377.864C170.714 377.905 170.18 377.753 169.778 377.444C168.409 376.395 166.477 376.062 164.736 376.575L145.221 382.325C142.931 383 140.479 382.871 138.316 381.961C136.153 381.052 134.539 379.472 133.771 377.511C132.784 374.994 133.358 372.246 135.307 370.157C135.647 369.793 136.145 369.564 136.685 369.523C136.99 369.5 137.294 369.539 137.573 369.632L136.584 367.109L77.5632 384.499C76.204 384.9 74.7491 384.823 73.4656 384.283C72.1822 383.744 71.2244 382.806 70.7683 381.643C70.2978 380.442 70.4417 379.185 71.0539 378.124C71.6661 377.064 72.7466 376.201 74.1493 375.788L159.945 350.507C161.304 350.107 162.759 350.184 164.043 350.723C165.326 351.263 166.284 352.201 166.74 353.364ZM162.717 365.062C162.973 364.987 163.23 364.922 163.488 364.867L161.49 359.77L159.001 360.503L160.987 365.572L162.717 365.062ZM154.76 367.407L157.25 366.673L155.264 361.604L152.774 362.338L154.76 367.407ZM149.037 363.439L146.548 364.173L148.534 369.241L151.023 368.508L149.037 363.439ZM144.457 374.011C143.263 374.364 142.018 374.491 140.799 374.408C140.71 374.406 140.62 374.399 140.533 374.386C139.482 374.287 138.456 374.031 137.505 373.626C137.157 374.518 137.148 375.491 137.508 376.41C137.941 377.516 138.852 378.408 140.072 378.92C141.292 379.433 142.676 379.506 143.968 379.125L163.482 373.376C165.798 372.693 168.303 372.854 170.434 373.761C170.782 372.869 170.791 371.896 170.431 370.978C169.537 368.694 166.639 367.476 163.971 368.262L154.168 371.15C154.161 371.153 154.153 371.155 154.146 371.157C154.139 371.159 154.131 371.161 154.123 371.163L144.457 374.011ZM142.279 371.004C142.59 370.965 142.9 370.902 143.203 370.812L144.797 370.343L142.81 365.274L140.321 366.007L142.279 371.004ZM161.199 353.707L75.4032 378.987C74.6585 379.207 74.2558 379.904 74.5056 380.541C74.7554 381.179 75.5646 381.519 76.3094 381.3L149.65 359.69C149.651 359.689 149.651 359.689 149.652 359.689C149.653 359.689 149.653 359.689 149.654 359.689L162.105 356.02C162.849 355.8 163.252 355.103 163.003 354.465C162.882 354.156 162.627 353.907 162.287 353.764C161.946 353.621 161.559 353.601 161.199 353.707Z" fill="#EDC959"/>
<path d="M137.975 129.803C138.619 130.392 138.958 131.163 138.93 131.973C138.915 132.395 138.801 132.802 138.598 133.173L142.178 136.449C144.127 136.105 146.233 136.611 147.694 137.947L147.694 137.948C149.087 139.223 149.622 141 149.125 142.702C149.038 142.999 148.813 143.252 148.504 143.402C148.194 143.552 147.826 143.585 147.487 143.494C146.333 143.185 145.071 143.435 144.194 144.148L134.363 152.126C133.21 153.062 131.702 153.556 130.118 153.515C128.534 153.475 127.064 152.905 125.978 151.912C124.584 150.637 124.049 148.86 124.547 147.157C124.633 146.86 124.858 146.607 125.168 146.457C125.343 146.373 125.537 146.325 125.734 146.316L124.336 145.037L94.6031 169.168C93.9183 169.724 93.0239 170.016 92.084 169.992C91.1442 169.968 90.2719 169.631 89.6273 169.041C88.9621 168.432 88.6465 167.647 88.6737 166.871C88.7009 166.094 89.0711 165.327 89.7777 164.753L132.999 129.676C133.684 129.12 134.578 128.827 135.518 128.851C136.458 128.875 137.33 129.213 137.975 129.803ZM139.308 137.733C139.437 137.629 139.57 137.53 139.706 137.437L136.883 134.854L135.629 135.872L138.436 138.441L139.308 137.733ZM135.3 140.987L136.554 139.969L133.746 137.4L132.492 138.418L135.3 140.987ZM130.609 139.946L129.355 140.964L132.163 143.532L133.417 142.514L130.609 139.946ZM131.25 147.333C130.648 147.821 129.944 148.187 129.189 148.421C129.135 148.441 129.079 148.457 129.023 148.47C128.363 148.655 127.668 148.741 126.97 148.72C127.046 149.334 127.352 149.918 127.861 150.384C128.474 150.944 129.303 151.266 130.196 151.288C131.09 151.311 131.94 151.033 132.591 150.505L142.422 142.526C143.589 141.579 145.138 141.093 146.702 141.139C146.625 140.525 146.32 139.941 145.811 139.475C144.546 138.318 142.424 138.264 141.08 139.355L136.142 143.363C136.138 143.366 136.134 143.369 136.131 143.372C136.127 143.375 136.123 143.378 136.119 143.381L131.25 147.333ZM128.986 146.042C129.16 145.946 129.325 145.836 129.477 145.712L130.28 145.06L127.472 142.492L126.218 143.509L128.986 146.042ZM134.771 131.297L91.55 166.375C91.1748 166.679 91.1569 167.19 91.51 167.513C91.8631 167.836 92.4557 167.851 92.831 167.547L129.778 137.561C129.778 137.561 129.778 137.561 129.779 137.56C129.779 137.56 129.779 137.56 129.78 137.56L136.052 132.469C136.427 132.165 136.445 131.654 136.092 131.331C135.921 131.174 135.689 131.084 135.44 131.078C135.19 131.072 134.953 131.149 134.771 131.297Z" fill="#EDC959"/>
<path d="M296.055 422.949C296.699 423.538 297.039 424.309 297.01 425.119C296.995 425.541 296.881 425.948 296.678 426.319L300.258 429.594C302.207 429.251 304.313 429.757 305.774 431.093L305.774 431.094C307.167 432.369 307.703 434.146 307.205 435.848C307.118 436.145 306.893 436.398 306.584 436.548C306.274 436.698 305.906 436.731 305.567 436.64C304.413 436.331 303.152 436.581 302.274 437.294L292.443 445.272C291.29 446.208 289.782 446.702 288.198 446.661C286.615 446.621 285.144 446.051 284.058 445.058C282.664 443.783 282.129 442.006 282.627 440.303C282.714 440.006 282.938 439.753 283.248 439.603C283.423 439.519 283.617 439.471 283.814 439.462L282.416 438.183L252.683 462.314C251.998 462.87 251.104 463.162 250.164 463.138C249.224 463.114 248.352 462.777 247.707 462.187C247.042 461.578 246.727 460.793 246.754 460.017C246.781 459.24 247.151 458.473 247.858 457.899L291.079 422.821C291.764 422.266 292.658 421.973 293.598 421.997C294.538 422.021 295.41 422.359 296.055 422.949ZM297.388 430.879C297.517 430.775 297.65 430.676 297.786 430.583L294.963 428L293.709 429.018L296.516 431.587L297.388 430.879ZM293.38 434.132L294.634 433.115L291.826 430.546L290.572 431.564L293.38 434.132ZM288.689 433.092L287.435 434.11L290.243 436.678L291.497 435.66L288.689 433.092ZM289.33 440.479C288.728 440.967 288.024 441.333 287.269 441.567C287.215 441.587 287.159 441.603 287.103 441.616C286.443 441.801 285.748 441.887 285.05 441.866C285.126 442.48 285.432 443.064 285.941 443.53C286.554 444.09 287.383 444.412 288.276 444.434C289.17 444.457 290.02 444.179 290.671 443.651L300.502 435.672C301.669 434.725 303.218 434.239 304.782 434.285C304.705 433.671 304.4 433.087 303.891 432.621C302.626 431.464 300.504 431.41 299.16 432.501L294.222 436.509C294.218 436.512 294.214 436.515 294.211 436.518C294.207 436.521 294.203 436.524 294.199 436.527L289.33 440.479ZM287.066 439.188C287.24 439.092 287.405 438.982 287.558 438.858L288.36 438.206L285.553 435.638L284.298 436.655L287.066 439.188ZM292.851 424.443L249.63 459.521C249.255 459.825 249.237 460.336 249.59 460.659C249.943 460.982 250.536 460.997 250.911 460.693L287.858 430.707C287.858 430.707 287.858 430.707 287.859 430.706C287.859 430.706 287.859 430.706 287.86 430.706L294.132 425.615C294.507 425.311 294.525 424.8 294.172 424.477C294.001 424.32 293.769 424.23 293.52 424.224C293.27 424.218 293.033 424.295 292.851 424.443Z" fill="#EDC959"/>
<path d="M294.934 610.533C295.058 609.734 295.539 609.021 296.29 608.525C296.682 608.266 297.122 608.082 297.587 607.98L298.274 603.54C296.724 602.475 295.844 600.766 296.124 598.954L296.124 598.954C296.392 597.225 297.66 595.743 299.516 594.989C299.84 594.857 300.212 594.845 300.544 594.953C300.877 595.062 301.141 595.283 301.274 595.564C301.728 596.521 302.756 597.193 303.958 597.318L317.426 598.721C319.006 598.886 320.411 599.565 321.381 600.634C322.351 601.703 322.771 603.034 322.562 604.381C322.295 606.109 321.027 607.591 319.171 608.346C318.847 608.477 318.475 608.49 318.143 608.381C317.954 608.32 317.788 608.222 317.655 608.098L317.387 609.832L358.119 614.077C359.057 614.175 359.89 614.578 360.466 615.212C361.042 615.846 361.29 616.636 361.167 617.435C361.039 618.26 360.529 618.967 359.81 619.443C359.09 619.918 358.16 620.162 357.192 620.062L297.982 613.892C297.044 613.794 296.21 613.391 295.635 612.756C295.059 612.122 294.81 611.333 294.934 610.533ZM301.261 604.614C301.085 604.595 300.911 604.57 300.74 604.539L300.198 608.041L301.916 608.22L302.455 604.738L301.261 604.614ZM306.753 605.186L305.034 605.007L304.495 608.489L306.213 608.668L306.753 605.186ZM308.792 608.937L310.511 609.116L311.05 605.634L309.332 605.455L308.792 608.937ZM315.069 603.819C315.893 603.905 316.672 604.136 317.363 604.485C317.415 604.508 317.465 604.534 317.513 604.563C318.1 604.88 318.619 605.284 319.044 605.757C319.551 605.316 319.885 604.743 319.983 604.112C320.101 603.352 319.864 602.601 319.317 601.998C318.769 601.395 317.977 601.012 317.085 600.919L303.618 599.516C302.019 599.349 300.594 598.638 299.643 597.578C299.135 598.019 298.801 598.592 298.704 599.223C298.461 600.792 299.761 602.224 301.601 602.416L308.367 603.121C308.372 603.121 308.377 603.122 308.382 603.122C308.387 603.123 308.393 603.123 308.398 603.124L315.069 603.819ZM315.339 606.131C315.142 606.077 314.938 606.039 314.728 606.017L313.629 605.902L313.09 609.385L314.808 609.564L315.339 606.131ZM298.322 611.694L357.532 617.864C358.046 617.917 358.52 617.604 358.588 617.166C358.655 616.728 358.292 616.328 357.778 616.275L307.164 611C307.163 611 307.163 611 307.163 611C307.162 611 307.162 611 307.161 611L298.568 610.105C298.055 610.051 297.581 610.364 297.513 610.802C297.48 611.014 297.546 611.224 297.699 611.392C297.852 611.561 298.073 611.668 298.322 611.694Z" fill="#EDC959"/>
<path d="M310.09 2.84002C311.464 3.89824 312.278 5.35314 312.383 6.93786C312.437 7.76443 312.295 8.57464 311.973 9.32862L319.607 15.2056C323.342 14.2545 327.552 14.9401 330.666 17.3377L330.666 17.3379C333.638 19.6266 335.034 23.0184 334.399 26.4112C334.288 27.0032 333.9 27.5293 333.325 27.8664C332.75 28.2033 332.039 28.3215 331.359 28.1929C329.046 27.7554 326.633 28.4253 325.062 29.9415L307.452 46.9263C305.385 48.9197 302.54 50.0995 299.441 50.2483C296.342 50.3969 293.361 49.4972 291.045 47.7142C288.072 45.426 286.677 42.0353 287.312 38.6411C287.422 38.0492 287.811 37.5231 288.386 37.186C288.711 36.9953 289.08 36.8748 289.463 36.8292L286.482 34.5342L233.221 85.9048C231.995 87.0878 230.307 87.7877 228.468 87.8761C226.629 87.9644 224.86 87.4304 223.485 86.3724C222.067 85.2802 221.296 83.7935 221.196 82.2744C221.095 80.7552 221.666 79.2041 222.932 77.983L300.354 3.30757C301.58 2.12466 303.268 1.42466 305.107 1.33635C306.946 1.24824 308.715 1.78221 310.09 2.84002ZM314.259 18.1259C314.489 17.9032 314.73 17.6915 314.978 17.491L308.957 12.8557L306.71 15.0226L312.697 19.6319L314.259 18.1259ZM307.078 25.0515L309.325 22.8846L303.338 18.2753L301.092 20.4421L307.078 25.0515ZM297.719 23.6949L295.473 25.8617L301.459 30.4708L303.706 28.3042L297.719 23.6949ZM300.428 38.0197C299.35 39.0598 298.049 39.8754 296.622 40.4396C296.52 40.4858 296.414 40.5261 296.307 40.5594C295.056 41.0159 293.716 41.2825 292.349 41.342C292.62 42.5306 293.332 43.6263 294.417 44.4613C295.724 45.4672 297.406 45.975 299.154 45.8911C300.902 45.8071 302.507 45.1415 303.673 44.0168L321.283 27.0322C323.373 25.0158 326.301 23.8434 329.362 23.7099C329.091 22.5218 328.379 21.4256 327.294 20.5906C324.597 18.5141 320.445 18.7135 318.038 21.0351L309.191 29.5676C309.185 29.5742 309.178 29.5809 309.171 29.5873C309.165 29.5938 309.158 29.6002 309.151 29.6067L300.428 38.0197ZM295.755 35.8252C296.075 35.6138 296.375 35.3749 296.649 35.1107L298.087 33.724L292.1 29.1146L289.853 31.2815L295.755 35.8252ZM304.133 6.21705L226.711 80.8925C226.039 81.5406 226.105 82.5398 226.858 83.1197C227.611 83.6994 228.77 83.6437 229.443 82.9956L295.625 19.1611C295.625 19.1604 295.626 19.1599 295.626 19.1592C295.627 19.1587 295.628 19.1581 295.628 19.1576L306.864 8.32012C307.536 7.6722 307.471 6.67329 306.717 6.09271C306.353 5.81191 305.883 5.67034 305.395 5.69377C304.906 5.71723 304.458 5.9031 304.133 6.21705Z" fill="#EDC959"/>
<path d="M150.574 582.347C152.581 583.892 153.77 586.017 153.923 588.332C154.002 589.539 153.795 590.722 153.324 591.823L164.473 600.407C169.929 599.018 176.077 600.019 180.626 603.521L180.626 603.521C184.967 606.864 187.005 611.817 186.078 616.773C185.916 617.637 185.348 618.405 184.508 618.898C183.668 619.39 182.63 619.563 181.637 619.375C178.259 618.736 174.735 619.714 172.44 621.928L146.721 646.735C143.703 649.646 139.548 651.369 135.022 651.586C130.496 651.803 126.141 650.489 122.759 647.885C118.417 644.543 116.379 639.591 117.306 634.634C117.468 633.77 118.036 633.001 118.876 632.509C119.351 632.23 119.89 632.055 120.448 631.988L116.094 628.636L38.3079 703.663C36.5163 705.39 34.0515 706.413 31.3655 706.542C28.6799 706.671 26.0959 705.891 24.0885 704.346C22.017 702.75 20.8907 700.579 20.7443 698.36C20.598 696.142 21.4316 693.876 23.2802 692.093L136.354 583.03C138.146 581.302 140.611 580.28 143.296 580.151C145.982 580.022 148.566 580.802 150.574 582.347ZM156.662 604.672C156.999 604.347 157.35 604.037 157.712 603.745L148.919 596.975L145.638 600.139L154.382 606.871L156.662 604.672ZM146.176 614.787L149.457 611.622L140.713 604.89L137.432 608.055L146.176 614.787ZM132.506 612.805L129.225 615.97L137.969 622.702L141.25 619.537L132.506 612.805ZM136.463 633.727C134.889 635.246 132.989 636.437 130.904 637.261C130.755 637.328 130.601 637.387 130.444 637.436C128.617 638.103 126.66 638.492 124.664 638.579C125.059 640.315 126.099 641.915 127.684 643.135C129.592 644.604 132.049 645.345 134.602 645.223C137.156 645.1 139.499 644.128 141.202 642.485L166.921 617.679C169.974 614.734 174.25 613.022 178.72 612.827C178.325 611.092 177.285 609.491 175.701 608.272C171.762 605.239 165.697 605.53 162.182 608.921L149.262 621.382C149.252 621.392 149.242 621.402 149.233 621.411C149.223 621.421 149.213 621.43 149.203 621.439L136.463 633.727ZM129.639 630.522C130.106 630.213 130.544 629.864 130.944 629.478L133.044 627.453L124.3 620.721L121.019 623.886L129.639 630.522ZM141.873 587.279L28.7995 696.342C27.8181 697.289 27.9143 698.748 29.0141 699.595C30.1138 700.442 31.8072 700.36 32.789 699.414L129.448 606.184C129.448 606.183 129.45 606.182 129.45 606.181C129.451 606.18 129.452 606.179 129.453 606.179L145.863 590.351C146.844 589.404 146.748 587.945 145.648 587.097C145.116 586.687 144.429 586.481 143.717 586.515C143.003 586.549 142.349 586.82 141.873 587.279Z" fill="#EDC959"/>
<path d="M23.0805 552.442C21.872 551.245 21.277 549.715 21.4054 548.132C21.4723 547.306 21.732 546.517 22.1625 545.803L15.4492 539.158C11.6035 539.704 7.52757 538.575 4.78841 535.864L4.78843 535.863C2.17482 533.276 1.28703 529.762 2.41374 526.463C2.61042 525.888 3.07304 525.407 3.69297 525.134C4.31288 524.861 5.03563 524.819 5.69156 525.02C7.92191 525.7 10.4139 525.293 12.1953 523.956L32.1545 508.982C34.497 507.225 37.4923 506.358 40.5888 506.541C43.6852 506.724 46.512 507.934 48.5483 509.95C51.1624 512.537 52.0506 516.05 50.9235 519.35C50.7268 519.926 50.2642 520.406 49.6443 520.679C49.2936 520.834 48.9099 520.914 48.524 520.919L51.1454 523.513L111.512 478.225C112.902 477.182 114.679 476.667 116.517 476.776C118.354 476.884 120.032 477.603 121.24 478.799C122.488 480.034 123.035 481.591 122.912 483.109C122.789 484.627 121.995 486.105 120.561 487.182L32.8086 553.016C31.4183 554.059 29.6411 554.573 27.8038 554.465C25.9662 554.356 24.289 553.638 23.0805 552.442ZM21.1829 536.831C20.9213 537.027 20.652 537.212 20.3766 537.384L25.6713 542.625L28.2176 540.715L22.9527 535.503L21.1829 536.831ZM29.3213 530.726L26.775 532.636L32.0399 537.847L34.5859 535.937L29.3213 530.726ZM38.4085 533.07L40.9548 531.159L35.6899 525.948L33.1436 527.858L38.4085 533.07ZM37.8186 518.568C39.0406 517.651 40.4507 516.981 41.9497 516.573C42.0578 516.538 42.1683 516.509 42.2799 516.488C43.5877 516.168 44.9564 516.047 46.3211 516.133C46.2264 514.925 45.6803 513.762 44.7262 512.818C43.5772 511.681 41.9824 510.997 40.2357 510.894C38.4888 510.791 36.7992 511.28 35.4776 512.272L15.5183 527.246C13.1493 529.023 10.0728 529.874 7.01612 529.68C7.11085 530.888 7.65694 532.052 8.61071 532.996C10.9823 535.344 15.1315 535.589 17.8594 533.542L27.8862 526.02C27.8938 526.014 27.9014 526.008 27.9089 526.002C27.9165 525.996 27.9243 525.991 27.9321 525.985L37.8186 518.568ZM42.1334 521.244C41.7849 521.419 41.4525 521.624 41.1419 521.857L39.5124 523.08L44.7773 528.291L47.3236 526.381L42.1334 521.244ZM29.4854 549.726L117.237 483.892C117.999 483.321 118.08 482.322 117.418 481.667C116.756 481.011 115.597 480.943 114.835 481.514L39.8223 537.791C39.8217 537.792 39.8209 537.792 39.8204 537.793C39.8196 537.793 39.819 537.794 39.8182 537.794L27.0832 547.349C26.3218 547.92 26.2404 548.918 26.9027 549.574C27.2235 549.892 27.669 550.082 28.1566 550.111C28.6447 550.14 29.1164 550.003 29.4854 549.726Z" fill="#EDC959"/>
<path d="M374.503 91.3999C376.028 89.846 378.176 88.8856 380.552 88.6958C381.792 88.5968 383.016 88.7138 384.165 89.0308L392.633 80.399C391.026 76.3572 391.856 71.7192 395.311 68.1973L395.311 68.1973C398.609 64.8366 403.64 63.1484 408.768 63.6814C409.663 63.7745 410.472 64.1747 411.006 64.7878C411.54 65.4009 411.751 66.1732 411.591 66.9234C411.043 69.4744 412.165 72.0822 414.518 73.7296L440.88 92.1877C443.974 94.3541 445.882 97.4103 446.253 100.794C446.624 104.177 445.414 107.483 442.845 110.101C439.548 113.462 434.519 115.15 429.388 114.617C428.493 114.524 427.684 114.124 427.15 113.511C426.848 113.164 426.649 112.766 426.562 112.35L423.255 115.721L502.988 171.547C504.824 172.833 505.956 174.646 506.176 176.654C506.396 178.662 505.678 180.623 504.154 182.177C502.58 183.781 500.382 184.695 498.104 184.877C495.826 185.059 493.468 184.508 491.573 183.182L375.669 102.03C373.833 100.744 372.701 98.9304 372.481 96.9228C372.261 94.9149 372.979 92.9537 374.503 91.3999ZM397.276 86.1112C396.93 85.8692 396.601 85.6165 396.288 85.3547L389.609 92.1626L392.972 94.5174L399.614 87.7478L397.276 86.1112ZM408.025 93.6374L404.662 91.2826L398.02 98.0522L401.383 100.407L408.025 93.6374ZM406.432 103.942L409.795 106.297L416.437 99.527L413.074 97.1722L406.432 103.942ZM427.83 100.296C429.444 101.426 430.732 102.81 431.647 104.345C431.722 104.455 431.787 104.568 431.842 104.685C432.588 106.031 433.052 107.485 433.207 108.977C434.98 108.624 436.593 107.793 437.796 106.566C439.245 105.089 439.928 103.224 439.719 101.316C439.51 99.4067 438.433 97.6827 436.687 96.4605L410.326 78.0023C407.196 75.8116 405.295 72.6642 404.949 69.3214C403.176 69.6743 401.563 70.5057 400.36 71.7321C397.367 74.7815 397.865 79.3152 401.468 81.8379L414.711 91.1106C414.721 91.1175 414.732 91.1245 414.742 91.1315C414.752 91.1385 414.762 91.1458 414.772 91.1531L427.83 100.296ZM424.754 105.513C424.421 105.173 424.048 104.856 423.638 104.569L421.486 103.062L414.844 109.832L418.207 112.186L424.754 105.513ZM379.862 97.7566L495.765 178.908C496.771 179.613 498.269 179.493 499.105 178.642C499.94 177.79 499.801 176.524 498.795 175.82L399.718 106.449C399.717 106.448 399.717 106.448 399.715 106.447C399.715 106.446 399.714 106.446 399.713 106.445L382.892 94.6679C381.887 93.9638 380.389 94.0829 379.552 94.9346C379.147 95.3471 378.957 95.8679 379.015 96.4007C379.074 96.934 379.374 97.4154 379.862 97.7566Z" fill="#EDC959"/>
<path d="M215.097 705.994C216.285 704.783 217.959 704.034 219.811 703.886C220.777 703.809 221.731 703.9 222.626 704.147L229.226 697.42C227.973 694.27 228.62 690.656 231.313 687.911L231.313 687.911C233.883 685.292 237.804 683.976 241.801 684.391C242.498 684.464 243.129 684.776 243.545 685.254C243.961 685.731 244.126 686.333 244 686.918C243.574 688.906 244.448 690.939 246.282 692.222L266.827 706.608C269.238 708.296 270.726 710.678 271.015 713.315C271.304 715.952 270.361 718.528 268.358 720.568C265.789 723.188 261.869 724.504 257.871 724.088C257.173 724.015 256.543 723.704 256.127 723.226C255.891 722.956 255.736 722.645 255.669 722.321L253.091 724.948L315.231 768.456C316.662 769.458 317.544 770.871 317.716 772.436C317.887 774.001 317.327 775.529 316.139 776.741C314.913 777.99 313.2 778.703 311.425 778.845C309.649 778.987 307.811 778.558 306.334 777.524L216.005 714.278C214.574 713.276 213.692 711.863 213.52 710.298C213.349 708.733 213.909 707.205 215.097 705.994ZM232.844 701.872C232.575 701.683 232.318 701.486 232.074 701.282L226.869 706.588L229.49 708.423L234.666 703.147L232.844 701.872ZM241.222 707.738L238.601 705.902L233.424 711.178L236.045 713.013L241.222 707.738ZM239.98 715.768L242.601 717.603L247.777 712.328L245.156 710.492L239.98 715.768ZM256.656 712.927C257.914 713.808 258.918 714.887 259.632 716.083C259.69 716.168 259.741 716.257 259.784 716.347C260.365 717.397 260.727 718.529 260.847 719.693C262.229 719.417 263.486 718.77 264.424 717.814C265.553 716.662 266.086 715.209 265.922 713.721C265.759 712.234 264.92 710.89 263.56 709.938L243.015 695.552C240.576 693.845 239.094 691.392 238.824 688.787C237.443 689.062 236.185 689.71 235.248 690.666C232.916 693.042 233.303 696.575 236.111 698.542L246.433 705.768C246.441 705.774 246.449 705.779 246.456 705.785C246.464 705.79 246.472 705.796 246.48 705.801L256.656 712.927ZM254.26 716.993C254 716.728 253.709 716.481 253.39 716.257L251.712 715.083L246.536 720.358L249.157 722.194L254.26 716.993ZM219.273 710.948L309.602 774.193C310.386 774.742 311.553 774.649 312.205 773.986C312.856 773.322 312.748 772.335 311.963 771.786L234.748 717.722C234.747 717.722 234.746 717.721 234.746 717.721C234.745 717.72 234.744 717.72 234.744 717.719L221.634 708.541C220.851 707.992 219.683 708.085 219.031 708.749C218.716 709.07 218.567 709.476 218.613 709.891C218.659 710.307 218.893 710.682 219.273 710.948Z" fill="#EDC959"/>
<path d="M393.596 247.858C395.422 247.595 397.264 247.954 398.785 248.868C399.578 249.344 400.234 249.942 400.727 250.626L410.866 249.168C412.311 246.079 415.554 243.688 419.691 243.093L419.691 243.093C423.639 242.526 427.621 243.698 430.345 246.229C430.82 246.671 431.062 247.257 431.015 247.851C430.967 248.445 430.634 248.994 430.094 249.369C428.256 250.645 427.374 252.674 427.791 254.667L432.465 276.991C433.014 279.611 432.331 282.246 430.544 284.411C428.757 286.577 426.079 288.013 423.003 288.455C419.056 289.023 415.074 287.852 412.35 285.32C411.874 284.878 411.632 284.292 411.68 283.698C411.706 283.362 411.825 283.04 412.02 282.756L408.061 283.325L422.196 350.843C422.522 352.398 422.117 353.962 421.056 355.247C419.996 356.532 418.407 357.384 416.582 357.646C414.698 357.917 412.853 357.51 411.395 356.634C409.937 355.758 408.866 354.413 408.53 352.808L387.982 254.661C387.656 253.106 388.061 251.542 389.121 250.257C390.182 248.972 391.771 248.12 393.596 247.858ZM410.229 254.558C410.168 254.266 410.122 253.974 410.092 253.683L402.095 254.833L402.692 257.681L410.643 256.538L410.229 254.558ZM412.135 263.661L411.538 260.813L403.587 261.956L404.183 264.804L412.135 263.661ZM405.078 269.079L405.674 271.927L413.626 270.784L413.03 267.936L405.078 269.079ZM419.921 276.16C420.208 277.527 420.15 278.903 419.782 280.208C419.761 280.305 419.732 280.401 419.696 280.494C419.339 281.614 418.752 282.676 417.958 283.627C419.219 284.183 420.667 284.387 422.108 284.18C423.844 283.93 425.354 283.12 426.363 281.899C427.371 280.677 427.755 279.19 427.446 277.712L422.773 255.389C422.217 252.739 422.958 250.052 424.735 247.922C423.476 247.366 422.026 247.161 420.586 247.369C417.004 247.884 414.609 250.785 415.248 253.836L417.596 265.051C417.598 265.059 417.6 265.068 417.602 265.076C417.603 265.085 417.605 265.094 417.607 265.102L419.921 276.16ZM415.004 277.923C415.009 277.578 414.975 277.229 414.903 276.882L414.521 275.059L406.569 276.203L407.166 279.051L415.004 277.923ZM393.001 253.939L413.549 352.087C413.728 352.939 414.686 353.515 415.687 353.371C416.687 353.227 417.355 352.417 417.177 351.565L399.612 267.666C399.612 267.665 399.612 267.664 399.612 267.663C399.612 267.663 399.611 267.662 399.611 267.661L396.629 253.417C396.451 252.566 395.492 251.989 394.491 252.133C394.007 252.202 393.585 252.429 393.304 252.77C393.022 253.111 392.914 253.526 393.001 253.939Z" fill="#EDC959"/>
</g>
</svg>
