<svg width="497" height="786" viewBox="0 0 497 786" fill="none" xmlns="http://www.w3.org/2000/svg">
<g opacity="0.2">
<path d="M170.108 240.294C170.086 239.067 170.613 237.901 171.594 237.012C172.105 236.547 172.708 236.187 173.368 235.945L173.243 229.13C170.682 227.822 168.945 225.418 168.894 222.638L168.894 222.638C168.846 219.985 170.336 217.512 172.881 216.023C173.325 215.764 173.87 215.673 174.389 215.774C174.907 215.874 175.354 216.156 175.623 216.554C176.537 217.907 178.227 218.723 180.033 218.682L200.264 218.228C202.638 218.175 204.885 218.93 206.591 220.354C208.297 221.778 209.257 223.701 209.295 225.768C209.344 228.421 207.854 230.893 205.308 232.382C204.864 232.642 204.319 232.732 203.801 232.632C203.507 232.575 203.237 232.46 203.009 232.299L203.058 234.96L264.246 233.586C265.656 233.555 266.989 234.003 268.001 234.848C269.013 235.693 269.583 236.834 269.605 238.06C269.629 239.327 269.058 240.488 268.118 241.341C267.178 242.194 265.869 242.738 264.415 242.771L175.467 244.767C174.058 244.799 172.725 244.351 171.713 243.506C170.701 242.661 170.131 241.52 170.108 240.294ZM177.925 230.178C177.66 230.184 177.397 230.179 177.138 230.165L177.236 235.539L179.817 235.481L179.719 230.137L177.925 230.178ZM186.175 229.992L183.594 230.05L183.692 235.394L186.272 235.336L186.175 229.992ZM190.147 235.25L192.728 235.192L192.63 229.848L190.049 229.906L190.147 235.25ZM198.094 226.351C199.333 226.323 200.541 226.522 201.65 226.915C201.733 226.94 201.814 226.97 201.892 227.004C202.839 227.369 203.709 227.878 204.457 228.509C205.093 227.749 205.438 226.823 205.421 225.855C205.399 224.688 204.857 223.604 203.895 222.8C202.933 221.997 201.665 221.571 200.326 221.601L180.095 222.055C177.693 222.109 175.408 221.31 173.732 219.897C173.097 220.657 172.751 221.583 172.768 222.551C172.812 224.958 175.098 226.867 177.863 226.804L188.027 226.576C188.034 226.576 188.042 226.576 188.05 226.576C188.057 226.575 188.065 226.575 188.073 226.575L198.094 226.351ZM199.087 229.779C198.783 229.735 198.471 229.716 198.156 229.724L196.505 229.761L196.603 235.105L199.184 235.047L199.087 229.779ZM175.406 241.394L264.353 239.398C265.125 239.38 265.743 238.819 265.731 238.147C265.719 237.475 265.08 236.942 264.308 236.96L188.274 238.666C188.273 238.666 188.272 238.666 188.272 238.666C188.271 238.666 188.27 238.666 188.27 238.666L175.361 238.956C174.589 238.973 173.971 239.534 173.983 240.207C173.989 240.532 174.14 240.835 174.409 241.059C174.678 241.284 175.032 241.403 175.406 241.394Z" fill="white"/>
<path d="M371.277 479.764C372.544 479.226 373.98 479.149 375.322 479.545C376.021 479.752 376.651 480.074 377.184 480.492L384.222 477.508C384.5 474.935 386.266 472.547 389.138 471.329L389.138 471.329C391.879 470.168 395.084 470.296 397.711 471.672C398.169 471.912 398.494 472.304 398.609 472.755C398.724 473.207 398.619 473.678 398.319 474.059C397.298 475.353 397.165 477.031 397.972 478.438L407.012 494.198C408.073 496.048 408.239 498.139 407.479 500.087C406.719 502.035 405.125 503.607 402.989 504.512C400.249 505.674 397.045 505.546 394.417 504.17C393.959 503.929 393.634 503.538 393.519 503.086C393.454 502.831 393.459 502.569 393.53 502.321L390.781 503.486L418.122 551.154C418.752 552.251 418.85 553.492 418.399 554.648C417.949 555.804 417.003 556.737 415.735 557.274C414.427 557.828 412.977 557.87 411.691 557.49C410.406 557.11 409.284 556.309 408.635 555.176L368.89 485.884C368.261 484.786 368.162 483.545 368.613 482.389C369.064 481.233 370.01 480.301 371.277 479.764ZM385.116 481.644C384.997 481.437 384.89 481.228 384.795 481.017L379.243 483.371L380.397 485.381L385.917 483.041L385.116 481.644ZM388.802 488.07L387.648 486.059L382.128 488.4L383.281 490.41L388.802 488.07ZM385.012 493.428L386.166 495.439L391.686 493.099L390.533 491.088L385.012 493.428ZM397.64 495.927C398.193 496.892 398.498 497.928 398.558 498.97C398.567 499.046 398.57 499.122 398.567 499.198C398.589 500.1 398.427 501.001 398.087 501.858C399.148 502.037 400.258 501.918 401.258 501.494C402.463 500.983 403.362 500.096 403.791 498.998C404.22 497.899 404.126 496.719 403.527 495.675L394.488 479.915C393.414 478.044 393.278 475.904 394.04 473.983C392.979 473.804 391.869 473.924 390.869 474.348C388.382 475.402 387.364 478.012 388.6 480.166L393.141 488.084C393.145 488.09 393.148 488.096 393.152 488.102C393.155 488.108 393.159 488.114 393.162 488.12L397.64 495.927ZM394.492 498.161C394.408 497.903 394.296 497.649 394.155 497.404L393.417 496.117L387.897 498.458L389.05 500.468L394.492 498.161ZM372.375 484.407L412.119 553.699C412.464 554.3 413.31 554.55 414.004 554.256C414.699 553.961 414.983 553.232 414.638 552.631L380.663 493.398C380.663 493.398 380.663 493.397 380.662 493.396C380.662 493.396 380.662 493.395 380.662 493.395L374.893 483.339C374.549 482.738 373.703 482.487 373.008 482.782C372.672 482.924 372.421 483.172 372.301 483.479C372.181 483.786 372.208 484.115 372.375 484.407Z" fill="white"/>
<path d="M163.451 353.364C163.898 354.528 163.8 355.777 163.174 356.883C162.847 357.46 162.397 357.962 161.853 358.367L164.336 364.83C167.23 365.404 169.72 367.239 170.733 369.876L170.733 369.876C171.7 372.393 171.137 375.142 169.227 377.23C168.894 377.595 168.405 377.824 167.876 377.864C167.347 377.905 166.824 377.753 166.429 377.444C165.088 376.395 163.194 376.062 161.487 376.575L142.357 382.325C140.112 383 137.708 382.871 135.588 381.961C133.468 381.052 131.886 379.472 131.133 377.511C130.166 374.994 130.728 372.246 132.638 370.157C132.971 369.793 133.46 369.564 133.989 369.523C134.289 369.5 134.586 369.539 134.86 369.632L133.89 367.109L76.0335 384.499C74.701 384.9 73.2748 384.823 72.0166 384.283C70.7586 383.744 69.8197 382.806 69.3726 381.643C68.9114 380.442 69.0524 379.185 69.6526 378.124C70.2527 377.064 71.3119 376.201 72.6869 375.788L156.79 350.507C158.123 350.107 159.549 350.184 160.807 350.723C162.065 351.263 163.004 352.201 163.451 353.364ZM159.508 365.062C159.759 364.987 160.011 364.922 160.263 364.867L158.305 359.77L155.865 360.503L157.812 365.572L159.508 365.062ZM151.708 367.407L154.149 366.673L152.201 361.604L149.761 362.338L151.708 367.407ZM146.098 363.439L143.657 364.173L145.604 369.241L148.045 368.508L146.098 363.439ZM141.608 374.011C140.437 374.364 139.217 374.491 138.022 374.408C137.934 374.406 137.847 374.399 137.761 374.386C136.731 374.287 135.726 374.031 134.793 373.626C134.451 374.518 134.443 375.491 134.796 376.41C135.221 377.516 136.113 378.408 137.309 378.92C138.505 379.433 139.862 379.506 141.128 379.125L160.258 373.376C162.528 372.693 164.984 372.854 167.072 373.761C167.414 372.869 167.423 371.896 167.07 370.978C166.193 368.694 163.352 367.476 160.737 368.262L151.128 371.15C151.12 371.153 151.113 371.155 151.106 371.157C151.098 371.159 151.091 371.161 151.084 371.163L141.608 374.011ZM139.473 371.004C139.778 370.965 140.081 370.902 140.379 370.812L141.941 370.343L139.994 365.274L137.553 366.007L139.473 371.004ZM158.019 353.707L73.916 378.987C73.186 379.207 72.7913 379.904 73.0361 380.541C73.281 381.179 74.0743 381.519 74.8044 381.3L146.698 359.69C146.699 359.689 146.7 359.689 146.7 359.689C146.701 359.689 146.702 359.689 146.702 359.689L158.908 356.02C159.638 355.8 160.032 355.103 159.788 354.465C159.669 354.156 159.42 353.907 159.086 353.764C158.752 353.621 158.373 353.601 158.019 353.707Z" fill="white"/>
<path d="M135.253 129.803C135.885 130.392 136.218 131.163 136.19 131.973C136.175 132.395 136.063 132.802 135.865 133.173L139.374 136.449C141.284 136.105 143.348 136.611 144.78 137.947L144.78 137.948C146.147 139.223 146.671 141 146.184 142.702C146.098 142.999 145.878 143.252 145.574 143.402C145.271 143.552 144.91 143.585 144.578 143.494C143.447 143.185 142.21 143.435 141.35 144.148L131.713 152.126C130.582 153.062 129.104 153.556 127.552 153.515C125.999 153.475 124.558 152.905 123.493 151.912C122.127 150.637 121.602 148.86 122.09 147.157C122.175 146.86 122.395 146.607 122.699 146.457C122.871 146.373 123.061 146.325 123.254 146.316L121.883 145.037L92.737 169.168C92.0658 169.724 91.189 170.016 90.2677 169.992C89.3464 169.968 88.4912 169.631 87.8594 169.041C87.2074 168.432 86.8979 167.647 86.9246 166.871C86.9513 166.094 87.3142 165.327 88.0069 164.753L130.375 129.676C131.047 129.12 131.924 128.827 132.845 128.851C133.766 128.875 134.621 129.213 135.253 129.803ZM136.56 137.733C136.687 137.629 136.817 137.53 136.951 137.437L134.183 134.854L132.953 135.872L135.706 138.441L136.56 137.733ZM132.631 140.987L133.86 139.969L131.108 137.4L129.879 138.418L132.631 140.987ZM128.033 139.946L126.804 140.964L129.556 143.532L130.785 142.514L128.033 139.946ZM128.661 147.333C128.071 147.821 127.381 148.187 126.641 148.421C126.588 148.441 126.533 148.457 126.478 148.47C125.831 148.655 125.15 148.741 124.465 148.72C124.54 149.334 124.84 149.918 125.339 150.384C125.939 150.944 126.753 151.266 127.628 151.288C128.504 151.311 129.338 151.033 129.976 150.505L139.613 142.526C140.757 141.579 142.275 141.093 143.808 141.139C143.733 140.525 143.433 139.941 142.935 139.475C141.695 138.318 139.615 138.264 138.298 139.355L133.456 143.363C133.453 143.366 133.449 143.369 133.446 143.372C133.442 143.375 133.438 143.378 133.434 143.381L128.661 147.333ZM126.442 146.042C126.612 145.946 126.774 145.836 126.924 145.712L127.71 145.06L124.958 142.492L123.729 143.509L126.442 146.042ZM132.113 131.297L89.7441 166.375C89.3764 166.679 89.3588 167.19 89.705 167.513C90.0511 167.836 90.632 167.851 90.9999 167.547L127.218 137.561C127.218 137.561 127.218 137.561 127.219 137.56C127.219 137.56 127.219 137.56 127.22 137.56L133.369 132.469C133.736 132.165 133.754 131.654 133.408 131.331C133.24 131.174 133.013 131.084 132.768 131.078C132.524 131.072 132.291 131.149 132.113 131.297Z" fill="white"/>
<path d="M290.215 422.949C290.847 423.538 291.18 424.309 291.152 425.119C291.137 425.541 291.026 425.948 290.827 426.319L294.336 429.594C296.247 429.251 298.311 429.757 299.743 431.093L299.743 431.094C301.109 432.369 301.633 434.146 301.146 435.848C301.061 436.145 300.84 436.398 300.537 436.548C300.233 436.698 299.872 436.731 299.54 436.64C298.409 436.331 297.172 436.581 296.312 437.294L286.675 445.272C285.544 446.208 284.066 446.702 282.514 446.661C280.961 446.621 279.52 446.051 278.456 445.058C277.089 443.783 276.564 442.006 277.052 440.303C277.137 440.006 277.358 439.753 277.661 439.603C277.833 439.519 278.023 439.471 278.216 439.462L276.846 438.183L247.699 462.314C247.028 462.87 246.151 463.162 245.23 463.138C244.309 463.114 243.453 462.777 242.822 462.187C242.17 461.578 241.86 460.793 241.887 460.017C241.914 459.24 242.276 458.473 242.969 457.899L285.338 422.821C286.009 422.266 286.886 421.973 287.807 421.997C288.728 422.021 289.584 422.359 290.215 422.949ZM291.522 430.879C291.649 430.775 291.779 430.676 291.913 430.583L289.145 428L287.916 429.018L290.668 431.587L291.522 430.879ZM287.593 434.132L288.822 433.115L286.07 430.546L284.841 431.564L287.593 434.132ZM282.995 433.092L281.766 434.11L284.518 436.678L285.748 435.66L282.995 433.092ZM283.623 440.479C283.033 440.967 282.343 441.333 281.603 441.567C281.55 441.587 281.495 441.603 281.44 441.616C280.793 441.801 280.112 441.887 279.427 441.866C279.502 442.48 279.802 443.064 280.301 443.53C280.902 444.09 281.715 444.412 282.59 444.434C283.466 444.457 284.3 444.179 284.938 443.651L294.575 435.672C295.719 434.725 297.238 434.239 298.77 434.285C298.695 433.671 298.396 433.087 297.897 432.621C296.657 431.464 294.577 431.41 293.26 432.501L288.419 436.509C288.415 436.512 288.411 436.515 288.408 436.518C288.404 436.521 288.4 436.524 288.396 436.527L283.623 440.479ZM281.404 439.188C281.574 439.092 281.736 438.982 281.886 438.858L282.673 438.206L279.92 435.638L278.691 436.655L281.404 439.188ZM287.075 424.443L244.706 459.521C244.339 459.825 244.321 460.336 244.667 460.659C245.013 460.982 245.594 460.997 245.962 460.693L282.18 430.707C282.18 430.707 282.181 430.707 282.181 430.706C282.181 430.706 282.182 430.706 282.182 430.706L288.331 425.615C288.698 425.311 288.716 424.8 288.37 424.477C288.202 424.32 287.975 424.23 287.731 424.224C287.486 424.218 287.253 424.295 287.075 424.443Z" fill="white"/>
<path d="M289.117 610.533C289.238 609.734 289.71 609.021 290.446 608.525C290.83 608.266 291.262 608.082 291.718 607.98L292.391 603.54C290.872 602.475 290.009 600.766 290.284 598.954L290.284 598.954C290.547 597.225 291.789 595.743 293.609 594.989C293.926 594.857 294.29 594.845 294.616 594.953C294.942 595.062 295.201 595.283 295.332 595.564C295.777 596.521 296.785 597.193 297.963 597.318L311.165 598.721C312.714 598.886 314.091 599.565 315.042 600.634C315.993 601.703 316.405 603.034 316.2 604.381C315.938 606.109 314.696 607.591 312.876 608.346C312.558 608.477 312.194 608.49 311.868 608.381C311.683 608.32 311.521 608.222 311.39 608.098L311.127 609.832L351.055 614.077C351.975 614.175 352.792 614.578 353.356 615.212C353.921 615.846 354.165 616.636 354.043 617.435C353.918 618.26 353.418 618.967 352.713 619.443C352.007 619.918 351.096 620.162 350.147 620.062L292.105 613.892C291.185 613.794 290.368 613.391 289.804 612.756C289.24 612.122 288.996 611.333 289.117 610.533ZM295.319 604.614C295.146 604.595 294.976 604.57 294.809 604.539L294.277 608.041L295.961 608.22L296.49 604.738L295.319 604.614ZM300.702 605.186L299.018 605.007L298.49 608.489L300.174 608.668L300.702 605.186ZM302.702 608.937L304.386 609.116L304.915 605.634L303.231 605.455L302.702 608.937ZM308.854 603.819C309.663 603.905 310.426 604.136 311.103 604.485C311.155 604.508 311.204 604.534 311.251 604.563C311.826 604.88 312.335 605.284 312.751 605.757C313.249 605.316 313.576 604.743 313.672 604.112C313.787 603.352 313.555 602.601 313.019 601.998C312.482 601.395 311.705 601.012 310.831 600.919L297.63 599.516C296.062 599.349 294.665 598.638 293.733 597.578C293.235 598.019 292.908 598.592 292.812 599.223C292.574 600.792 293.848 602.224 295.653 602.416L302.285 603.121C302.29 603.121 302.295 603.122 302.3 603.122C302.305 603.123 302.31 603.123 302.315 603.124L308.854 603.819ZM309.12 606.131C308.927 606.077 308.726 606.039 308.521 606.017L307.443 605.902L306.915 609.385L308.599 609.564L309.12 606.131ZM292.438 611.694L350.481 617.864C350.984 617.917 351.448 617.604 351.515 617.166C351.581 616.728 351.226 616.328 350.722 616.275L301.106 611C301.105 611 301.105 611 301.104 611C301.104 611 301.103 611 301.103 611L292.679 610.105C292.176 610.051 291.712 610.364 291.645 610.802C291.613 611.014 291.678 611.224 291.828 611.392C291.977 611.561 292.194 611.668 292.438 611.694Z" fill="white"/>
<path d="M303.973 2.84002C305.32 3.89825 306.119 5.35315 306.221 6.93787C306.275 7.76443 306.135 8.57465 305.819 9.32863L313.303 15.2056C316.965 14.2545 321.091 14.9401 324.144 17.3377L324.144 17.3379C327.058 19.6266 328.426 23.0184 327.803 26.4113C327.695 27.0032 327.314 27.5293 326.75 27.8664C326.186 28.2033 325.489 28.3215 324.823 28.1929C322.556 27.7554 320.191 28.4253 318.65 29.9415L301.388 46.9263C299.362 48.9197 296.573 50.0995 293.535 50.2483C290.497 50.3969 287.574 49.4972 285.304 47.7142C282.39 45.426 281.022 42.0353 281.645 38.6411C281.753 38.0492 282.134 37.5231 282.698 37.186C283.017 36.9953 283.378 36.8749 283.753 36.8292L280.831 34.5342L228.621 85.9048C227.419 87.0878 225.764 87.7877 223.962 87.8761C222.159 87.9644 220.425 87.4304 219.077 86.3724C217.687 85.2802 216.931 83.7935 216.833 82.2744C216.734 80.7552 217.294 79.2041 218.535 77.983L294.429 3.30757C295.632 2.12466 297.286 1.42466 299.089 1.33635C300.892 1.24825 302.626 1.78222 303.973 2.84002ZM308.06 18.1259C308.286 17.9033 308.522 17.6915 308.765 17.491L302.863 12.8557L300.661 15.0226L306.529 19.6319L308.06 18.1259ZM301.021 25.0515L303.224 22.8846L297.355 18.2753L295.153 20.4421L301.021 25.0515ZM291.847 23.6949L289.645 25.8617L295.513 30.4708L297.716 28.3042L291.847 23.6949ZM294.502 38.0197C293.446 39.0598 292.17 39.8754 290.771 40.4396C290.671 40.4858 290.568 40.5261 290.462 40.5594C289.236 41.0159 287.922 41.2825 286.583 41.342C286.848 42.5306 287.546 43.6263 288.61 44.4613C289.891 45.4672 291.54 45.975 293.253 45.8911C294.967 45.8071 296.54 45.1415 297.683 44.0168L314.946 27.0322C316.995 25.0158 319.864 23.8434 322.865 23.7099C322.6 22.5218 321.902 21.4257 320.838 20.5906C318.195 18.5141 314.124 18.7135 311.765 21.0351L303.093 29.5676C303.086 29.5742 303.08 29.5809 303.073 29.5873C303.067 29.5938 303.06 29.6002 303.053 29.6067L294.502 38.0197ZM289.922 35.8252C290.236 35.6138 290.529 35.3749 290.798 35.1107L292.207 33.724L286.339 29.1146L284.136 31.2815L289.922 35.8252ZM298.134 6.21705L222.239 80.8925C221.581 81.5406 221.645 82.5398 222.383 83.1197C223.121 83.6994 224.258 83.6437 224.917 82.9956L289.794 19.1611C289.794 19.1604 289.795 19.1599 289.795 19.1592C289.796 19.1588 289.797 19.1581 289.797 19.1576L300.811 8.32012C301.47 7.67221 301.406 6.67329 300.667 6.09271C300.31 5.81191 299.849 5.67034 299.371 5.69378C298.892 5.71724 298.453 5.9031 298.134 6.21705Z" fill="white"/>
<path d="M147.604 582.347C149.571 583.892 150.737 586.017 150.887 588.332C150.965 589.539 150.762 590.722 150.3 591.823L161.229 600.407C166.578 599.018 172.604 600.019 177.063 603.521L177.063 603.521C181.319 606.864 183.316 611.817 182.408 616.773C182.249 617.637 181.693 618.405 180.869 618.898C180.046 619.39 179.028 619.563 178.054 619.375C174.743 618.736 171.289 619.714 169.039 621.928L143.828 646.735C140.869 649.646 136.796 651.369 132.359 651.586C127.922 651.803 123.653 650.489 120.338 647.885C116.082 644.543 114.084 639.591 114.993 634.634C115.152 633.77 115.708 633.001 116.531 632.509C116.997 632.23 117.525 632.055 118.072 631.988L113.805 628.636L37.5525 703.663C35.7963 705.39 33.3801 706.413 30.7471 706.542C28.1145 706.671 25.5814 705.891 23.6135 704.346C21.5829 702.75 20.4788 700.579 20.3354 698.36C20.1919 696.142 21.0091 693.876 22.8213 692.093L133.665 583.03C135.421 581.302 137.838 580.28 140.47 580.151C143.103 580.022 145.636 580.802 147.604 582.347ZM153.573 604.672C153.903 604.347 154.247 604.037 154.602 603.745L145.982 596.975L142.766 600.139L151.337 606.871L153.573 604.672ZM143.293 614.787L146.509 611.622L137.938 604.89L134.722 608.055L143.293 614.787ZM129.893 612.805L126.677 615.97L135.248 622.702L138.465 619.537L129.893 612.805ZM133.772 633.727C132.228 635.246 130.366 636.437 128.322 637.261C128.176 637.328 128.025 637.387 127.871 637.436C126.08 638.103 124.162 638.492 122.205 638.579C122.593 640.315 123.612 641.915 125.166 643.135C127.036 644.604 129.445 645.345 131.948 645.223C134.451 645.1 136.748 644.128 138.417 642.485L163.629 617.679C166.621 614.734 170.813 613.022 175.196 612.827C174.808 611.092 173.788 609.491 172.235 608.272C168.374 605.239 162.429 605.53 158.983 608.921L146.318 621.382C146.308 621.392 146.299 621.402 146.289 621.411C146.28 621.421 146.27 621.43 146.26 621.439L133.772 633.727ZM127.082 630.522C127.54 630.213 127.969 629.864 128.361 629.478L130.42 627.453L121.848 620.721L118.632 623.886L127.082 630.522ZM139.075 587.279L28.2317 696.342C27.2696 697.289 27.364 698.748 28.442 699.595C29.52 700.442 31.1801 700.36 32.1425 699.414L126.895 606.184C126.895 606.183 126.897 606.182 126.897 606.181C126.898 606.18 126.899 606.179 126.9 606.179L142.986 590.351C143.948 589.404 143.854 587.945 142.776 587.097C142.254 586.687 141.581 586.481 140.882 586.515C140.183 586.549 139.541 586.82 139.075 587.279Z" fill="white"/>
<path d="M22.6251 552.442C21.4405 551.245 20.8572 549.715 20.9831 548.132C21.0487 547.306 21.3033 546.517 21.7253 545.803L15.1444 539.158C11.3746 539.704 7.37901 538.575 4.69388 535.864L4.6939 535.863C2.13184 533.276 1.26156 529.762 2.36604 526.463C2.55884 525.888 3.01234 525.407 3.62004 525.134C4.22773 524.861 4.93622 524.819 5.57921 525.02C7.76557 525.7 10.2084 525.293 11.9547 523.956L31.5202 508.982C33.8165 507.225 36.7527 506.358 39.7881 506.541C42.8235 506.724 45.5945 507.934 47.5906 509.95C50.1532 512.537 51.0238 516.05 49.919 519.35C49.7262 519.926 49.2727 520.406 48.665 520.679C48.3213 520.834 47.9452 520.914 47.5668 520.919L50.1365 523.513L109.313 478.225C110.675 477.182 112.417 476.667 114.219 476.776C116.02 476.884 117.664 477.603 118.849 478.799C120.071 480.034 120.608 481.591 120.487 483.109C120.367 484.627 119.589 486.105 118.183 487.182L32.1614 553.016C30.7986 554.059 29.0564 554.573 27.2553 554.465C25.454 554.356 23.8098 553.638 22.6251 552.442ZM20.7651 536.831C20.5086 537.027 20.2446 537.212 19.9746 537.384L25.1649 542.625L27.661 540.715L22.4999 535.503L20.7651 536.831ZM28.7429 530.726L26.2468 532.636L31.4079 537.847L33.9037 535.937L28.7429 530.726ZM37.6508 533.07L40.1469 531.159L34.9858 525.948L32.4898 527.858L37.6508 533.07ZM37.0726 518.568C38.2705 517.651 39.6528 516.981 41.1222 516.573C41.2282 516.538 41.3365 516.509 41.4459 516.488C42.7279 516.168 44.0696 516.047 45.4074 516.133C45.3145 514.925 44.7792 513.762 43.844 512.818C42.7176 511.681 41.1543 510.997 39.4421 510.894C37.7296 510.791 36.0733 511.28 34.7777 512.272L15.2122 527.246C12.8899 529.023 9.87407 529.874 6.87765 529.68C6.97052 530.888 7.50583 532.052 8.44079 532.996C10.7656 535.344 14.8329 535.589 17.5071 533.542L27.3361 526.02C27.3435 526.014 27.3509 526.008 27.3584 526.002C27.3658 525.996 27.3735 525.991 27.3811 525.985L37.0726 518.568ZM41.3023 521.244C40.9606 521.419 40.6348 521.624 40.3304 521.857L38.733 523.08L43.894 528.291L46.3901 526.381L41.3023 521.244ZM28.9037 549.726L114.925 483.892C115.671 483.321 115.751 482.322 115.102 481.667C114.453 481.011 113.317 480.943 112.57 481.514L39.0367 537.791C39.0362 537.792 39.0354 537.792 39.0349 537.793C39.0341 537.793 39.0335 537.794 39.0328 537.794L26.5489 547.349C25.8026 547.92 25.7228 548.918 26.372 549.574C26.6865 549.892 27.1232 550.082 27.6011 550.111C28.0796 550.14 28.5421 550.003 28.9037 549.726Z" fill="white"/>
<path d="M367.117 91.3998C368.612 89.846 370.717 88.8856 373.046 88.6958C374.261 88.5968 375.462 88.7138 376.587 89.0308L384.889 80.399C383.313 76.3572 384.127 71.7192 387.514 68.1973L387.514 68.1973C390.747 64.8366 395.678 63.1484 400.706 63.6814C401.583 63.7745 402.376 64.1747 402.9 64.7878C403.423 65.4009 403.63 66.1732 403.472 66.9234C402.936 69.4744 404.035 72.0822 406.342 73.7296L432.184 92.1877C435.217 94.3541 437.088 97.4103 437.451 100.794C437.815 104.177 436.629 107.483 434.11 110.101C430.878 113.462 425.948 115.15 420.919 114.617C420.041 114.524 419.248 114.124 418.725 113.511C418.429 113.164 418.234 112.766 418.149 112.35L414.907 115.721L493.067 171.547C494.867 172.833 495.976 174.646 496.192 176.654C496.408 178.662 495.704 180.623 494.21 182.177C492.667 183.781 490.513 184.695 488.28 184.877C486.046 185.059 483.735 184.508 481.877 183.182L368.26 102.03C366.46 100.744 365.35 98.9304 365.134 96.9228C364.919 94.9149 365.623 92.9537 367.117 91.3998ZM389.44 86.1112C389.101 85.8692 388.778 85.6165 388.471 85.3547L381.924 92.1626L385.221 94.5174L391.732 87.7478L389.44 86.1112ZM399.977 93.6374L396.681 91.2826L390.17 98.0522L393.466 100.407L399.977 93.6374ZM398.415 103.942L401.712 106.297L408.223 99.527L404.926 97.1722L398.415 103.942ZM419.391 100.296C420.974 101.426 422.236 102.81 423.134 104.345C423.206 104.455 423.271 104.568 423.325 104.685C424.056 106.031 424.511 107.485 424.662 108.977C426.401 108.624 427.981 107.793 429.161 106.566C430.582 105.089 431.251 103.224 431.046 101.316C430.841 99.4067 429.785 97.6827 428.074 96.4605L402.233 78.0023C399.165 75.8116 397.301 72.6642 396.962 69.3214C395.224 69.6743 393.642 70.5057 392.463 71.7321C389.53 74.7815 390.017 79.3152 393.55 81.8379L406.531 91.1106C406.542 91.1175 406.552 91.1245 406.562 91.1315C406.571 91.1385 406.581 91.1458 406.591 91.1531L419.391 100.296ZM416.376 105.513C416.05 105.173 415.684 104.856 415.282 104.569L413.172 103.062L406.662 109.832L409.958 112.186L416.376 105.513ZM372.369 97.7566L485.987 178.908C486.973 179.613 488.442 179.493 489.261 178.642C490.08 177.79 489.943 176.524 488.957 175.82L391.834 106.449C391.833 106.448 391.833 106.448 391.832 106.447C391.831 106.446 391.83 106.446 391.829 106.445L375.34 94.6679C374.354 93.9638 372.886 94.0829 372.066 94.9346C371.669 95.3471 371.482 95.8679 371.54 96.4007C371.597 96.934 371.892 97.4154 372.369 97.7566Z" fill="white"/>
<path d="M210.854 705.994C212.019 704.783 213.66 704.034 215.475 703.886C216.422 703.809 217.358 703.9 218.235 704.147L224.705 697.42C223.477 694.27 224.111 690.656 226.75 687.911L226.751 687.911C229.27 685.292 233.113 683.976 237.032 684.391C237.715 684.464 238.334 684.776 238.741 685.254C239.149 685.731 239.311 686.333 239.188 686.918C238.77 688.906 239.626 690.939 241.424 692.222L261.564 706.608C263.928 708.296 265.386 710.678 265.669 713.315C265.953 715.952 265.028 718.528 263.065 720.568C260.546 723.188 256.704 724.504 252.784 724.088C252.101 724.015 251.483 723.704 251.075 723.226C250.844 722.956 250.692 722.645 250.626 722.321L248.1 724.948L309.013 768.456C310.416 769.458 311.281 770.871 311.449 772.436C311.617 774.001 311.069 775.529 309.904 776.741C308.702 777.99 307.023 778.703 305.282 778.845C303.542 778.987 301.74 778.558 300.292 777.524L211.745 714.278C210.342 713.276 209.477 711.863 209.309 710.298C209.141 708.733 209.69 707.205 210.854 705.994ZM228.252 701.872C227.988 701.683 227.736 701.486 227.497 701.282L222.394 706.588L224.963 708.423L230.038 703.147L228.252 701.872ZM236.464 707.738L233.895 705.902L228.82 711.178L231.39 713.013L236.464 707.738ZM235.247 715.768L237.816 717.603L242.89 712.328L240.321 710.492L235.247 715.768ZM251.594 712.927C252.827 713.808 253.811 714.887 254.511 716.083C254.568 716.168 254.618 716.257 254.66 716.347C255.229 717.397 255.584 718.529 255.702 719.693C257.057 719.417 258.289 718.77 259.208 717.814C260.316 716.662 260.837 715.209 260.677 713.721C260.517 712.234 259.695 710.89 258.361 709.938L238.222 695.552C235.831 693.845 234.378 691.392 234.114 688.787C232.759 689.062 231.527 689.71 230.608 690.666C228.322 693.042 228.702 696.575 231.454 698.542L241.572 705.768C241.58 705.774 241.588 705.779 241.595 705.785C241.603 705.79 241.611 705.796 241.618 705.801L251.594 712.927ZM249.245 716.993C248.99 716.728 248.705 716.481 248.392 716.257L246.748 715.083L241.673 720.358L244.243 722.194L249.245 716.993ZM214.948 710.948L303.495 774.193C304.264 774.742 305.408 774.649 306.047 773.986C306.685 773.322 306.579 772.335 305.81 771.786L230.118 717.722C230.117 717.722 230.116 717.721 230.116 717.721C230.115 717.72 230.114 717.72 230.114 717.719L217.263 708.541C216.495 707.992 215.35 708.085 214.711 708.749C214.402 709.07 214.257 709.476 214.301 709.891C214.346 710.307 214.576 710.682 214.948 710.948Z" fill="white"/>
<path d="M385.833 247.858C387.622 247.595 389.428 247.954 390.919 248.868C391.697 249.344 392.34 249.942 392.823 250.626L402.762 249.168C404.178 246.079 407.358 243.688 411.413 243.093L411.413 243.093C415.283 242.526 419.187 243.698 421.857 246.229C422.322 246.671 422.56 247.257 422.513 247.851C422.467 248.445 422.141 248.994 421.611 249.369C419.809 250.645 418.944 252.674 419.354 254.667L423.935 276.991C424.473 279.611 423.804 282.246 422.052 284.411C420.3 286.577 417.675 288.013 414.66 288.455C410.79 289.023 406.887 287.852 404.216 285.32C403.751 284.878 403.513 284.292 403.56 283.698C403.586 283.362 403.702 283.04 403.893 282.756L400.012 283.325L413.869 350.843C414.188 352.398 413.791 353.962 412.751 355.247C411.712 356.532 410.154 357.384 408.365 357.646C406.518 357.917 404.71 357.51 403.281 356.634C401.851 355.758 400.802 354.413 400.472 352.808L380.329 254.661C380.01 253.106 380.407 251.542 381.446 250.257C382.486 248.972 384.044 248.12 385.833 247.858ZM402.137 254.558C402.077 254.266 402.033 253.974 402.003 253.683L394.164 254.833L394.749 257.681L402.544 256.538L402.137 254.558ZM404.006 263.661L403.421 260.813L395.626 261.956L396.211 264.804L404.006 263.661ZM397.088 269.079L397.673 271.927L405.467 270.784L404.883 267.936L397.088 269.079ZM411.639 276.16C411.92 277.527 411.862 278.903 411.502 280.208C411.481 280.305 411.453 280.401 411.418 280.494C411.068 281.614 410.493 282.676 409.714 283.627C410.95 284.183 412.37 284.387 413.782 284.18C415.484 283.93 416.965 283.12 417.953 281.899C418.941 280.677 419.318 279.19 419.015 277.712L414.434 255.389C413.89 252.739 414.615 250.052 416.358 247.922C415.123 247.366 413.702 247.161 412.29 247.369C408.779 247.884 406.431 250.785 407.058 253.836L409.359 265.051C409.361 265.059 409.363 265.068 409.365 265.076C409.366 265.085 409.368 265.094 409.37 265.102L411.639 276.16ZM406.819 277.923C406.823 277.578 406.79 277.229 406.719 276.882L406.345 275.059L398.55 276.203L399.135 279.051L406.819 277.923ZM385.249 253.939L405.392 352.087C405.567 352.939 406.507 353.515 407.488 353.371C408.468 353.227 409.124 352.417 408.949 351.565L391.73 267.666C391.73 267.665 391.73 267.664 391.73 267.663C391.73 267.663 391.729 267.662 391.729 267.661L388.806 253.417C388.631 252.566 387.692 251.989 386.71 252.133C386.235 252.202 385.822 252.429 385.546 252.77C385.27 253.111 385.165 253.526 385.249 253.939Z" fill="white"/>
</g>
</svg>
