<svg width="247" height="246" viewBox="0 0 247 246" fill="none" xmlns="http://www.w3.org/2000/svg">
<g opacity="0.15">
<path d="M145.393 240.236C140.119 236.48 138.717 229.286 142.054 223.848C150.145 225.314 158.741 222.148 163.818 215.018C170.817 205.187 168.514 191.495 158.683 184.495C154.077 181.216 148.624 179.978 143.408 180.601L146.629 146.852C148.02 146.481 150.172 145.97 152.566 145.63C157.555 144.923 161.475 145.274 163.604 146.619C164.306 147.062 165.179 147.143 165.951 146.837C174.175 143.574 239.789 106.824 242.578 105.261C243.786 104.585 244.252 103.082 243.639 101.841C243.025 100.6 241.549 100.057 240.278 100.604L147.118 140.757L154.581 39.5865C154.682 38.2068 153.686 36.989 152.313 36.8151C150.94 36.6418 149.672 37.5741 149.428 38.9362C148.863 42.0832 135.603 116.111 135.211 124.949C135.174 125.779 135.536 126.577 136.185 127.095C138.152 128.667 139.766 132.257 140.73 137.202C141.192 139.576 141.413 141.777 141.518 143.213L110.681 157.298C109.562 152.166 106.609 147.417 102.003 144.137C92.1721 137.138 78.4796 139.441 71.4799 149.272C64.4802 159.103 66.7835 172.795 76.6144 179.795C86.4453 186.795 100.138 184.492 107.138 174.661C109.708 171.051 111.018 166.921 111.168 162.793L141.193 149.079L138.057 181.938C134.205 183.43 130.731 186.021 128.161 189.63C121.162 199.461 123.465 213.153 133.296 220.153C134.474 220.992 135.709 221.693 136.98 222.268C133.073 229.854 135.228 239.382 142.378 244.473C143.548 245.305 145.172 245.032 146.005 243.863C146.837 242.693 146.563 241.069 145.393 240.236ZM194.159 126.145C180.852 133.421 169.399 139.556 165.111 141.533C163.899 140.971 162.562 140.597 161.164 140.367L194.159 126.145ZM140.497 124.007C140.963 119.308 143.013 106.479 145.534 91.5239L142.891 127.356C142.216 126.11 141.425 124.97 140.497 124.007ZM79.6303 175.559C72.1355 170.222 70.3795 159.783 75.7159 152.289C81.0522 144.794 91.4911 143.038 98.9859 148.374C106.481 153.711 108.237 164.149 102.9 171.644C97.564 179.139 87.1251 180.895 79.6303 175.559ZM132.397 192.646C137.733 185.151 148.172 183.395 155.667 188.732C163.162 194.068 164.918 204.507 159.582 212.002C154.245 219.497 143.806 221.253 136.311 215.916C128.817 210.58 127.061 200.141 132.397 192.646Z" fill="white"/>
<path d="M136.922 31.3292C138.092 32.162 139.716 31.8888 140.549 30.7192C141.381 29.5495 141.108 27.9255 139.939 27.0927L111.853 7.09549C106.358 3.18288 98.7048 4.47026 94.7925 9.96507L14.5152 122.712C10.6031 128.207 11.8902 135.86 17.3854 139.773L45.4712 159.77C46.6409 160.603 48.265 160.33 49.0978 159.16C49.9306 157.991 49.6573 156.367 48.4877 155.534L22.5201 137.045L25.3554 133.063L51.3229 151.552C52.4926 152.385 54.1167 152.111 54.9495 150.942C55.7823 149.772 55.5091 148.148 54.3394 147.315L28.3718 128.826L31.4896 124.447L57.4572 142.936C58.6268 143.769 60.2509 143.496 61.0837 142.326C61.9165 141.157 61.6433 139.533 60.4736 138.7L34.5061 120.211L37.6241 115.831L63.5917 134.321C64.7613 135.153 66.3854 134.88 67.2182 133.711C68.051 132.541 67.7778 130.917 66.6081 130.084L40.6406 111.595L43.7583 107.216L69.7259 125.705C70.8955 126.538 72.5196 126.265 73.3524 125.095C74.1852 123.926 73.912 122.302 72.7424 121.469L46.7748 102.98L49.8926 98.6007L75.8601 117.09C77.0298 117.923 78.6539 117.649 79.4867 116.48C80.3194 115.31 80.0463 113.686 78.8766 112.853L52.909 94.3642L56.0271 89.985L81.9946 108.474C83.1643 109.307 84.7883 109.034 85.6211 107.864C86.4539 106.694 86.1807 105.07 85.0111 104.238L59.0435 85.7484L62.1613 81.3696L88.1289 99.8588C89.2985 100.692 90.9226 100.418 91.7554 99.2488C92.5882 98.0791 92.315 96.455 91.1453 95.6223L65.1778 77.1331L68.2965 72.7528L94.2641 91.242C95.4338 92.0748 97.0578 91.8016 97.8906 90.632C98.7234 89.4623 98.4502 87.8383 97.2806 87.0055L71.313 68.5163L74.4308 64.1374L100.398 82.6266C101.568 83.4594 103.192 83.1862 104.025 82.0166C104.858 80.847 104.584 79.2229 103.415 78.3901L77.4473 59.9009L80.5653 55.5217L106.533 74.0109C107.702 74.8437 109.327 74.5705 110.159 73.4009C110.992 72.2312 110.719 70.6072 109.549 69.7744L83.5817 51.2852L86.6995 46.9064L112.667 65.3955C113.837 66.2283 115.461 65.9551 116.294 64.7855C117.126 63.6159 116.853 61.9918 115.684 61.159L89.716 42.6698L92.8345 38.2899L118.802 56.7791C119.972 57.6119 121.596 57.3387 122.429 56.1691C123.261 54.9994 122.988 53.3754 121.819 52.5426L95.851 34.0534L98.9687 29.6745L124.936 48.1637C126.106 48.9965 127.73 48.7233 128.563 47.5537C129.396 46.384 129.122 44.76 127.953 43.9272L101.985 25.438L105.103 21.0588L131.071 39.548C132.24 40.3808 133.865 40.1076 134.697 38.938C135.53 37.7683 135.257 36.1443 134.087 35.3115L108.12 16.8223L110.955 12.8403L136.922 31.3292ZM18.7518 125.729L99.029 12.9815C100.745 10.5713 103.712 9.57467 106.426 10.2344L18.5762 133.617C17.0649 131.268 17.0359 128.139 18.7518 125.729Z" fill="white"/>
</g>
</svg>
