<svg width="141" height="120" viewBox="0 0 141 120" fill="none" xmlns="http://www.w3.org/2000/svg">
<g opacity="0.15">
<path d="M138.458 59.5611C135.704 54.4799 131.001 50.7782 125.216 49.1376C123.25 48.5803 121.226 48.2973 119.2 48.2973C115.682 48.2973 112.305 49.151 109.297 50.6777C109.307 49.0933 109.299 47.609 109.291 46.2343C109.286 45.3931 109.281 44.589 109.281 43.8235C109.281 41.719 107.575 40.0127 105.471 40.0127H3.83114C1.72663 40.0127 0.0203491 41.719 0.0203491 43.8235C0.0203491 44.5885 0.0155856 45.3931 0.0108221 46.2343C-0.0744443 61.1097 -0.23307 88.7979 24.2217 117.736C24.9462 118.593 26.0109 119.087 27.1322 119.087H82.169C83.2908 119.087 84.3555 118.593 85.0795 117.736C87.3655 115.031 89.4357 112.337 91.3116 109.664C96.3476 108.897 131.908 102.595 139.89 76.9049C141.763 70.8801 141.253 64.7204 138.458 59.5611ZM28.9195 111.465C8.06349 85.9913 7.56 62.3711 7.62525 47.6347H101.677C101.742 62.3706 101.239 85.9913 80.3827 111.465H28.9195ZM132.612 74.6428C127.6 90.7748 107.803 97.9253 96.9544 100.687C105.402 85.5631 108.099 71.4779 108.936 60.2551C111.585 57.558 115.256 55.9189 119.2 55.9189C120.523 55.9189 121.848 56.1047 123.136 56.4696C126.929 57.5452 129.991 59.9326 131.757 63.1918C133.592 66.5787 133.888 70.5381 132.612 74.6428Z" fill="white"/>
<path d="M34.6445 28.1046C34.6445 30.2091 36.3508 31.9154 38.4553 31.9154C40.5598 31.9154 42.2661 30.2091 42.2661 28.1046C42.2661 26.9318 42.4633 26.5131 42.8558 25.6781C43.4112 24.4981 44.1715 22.8828 44.1715 20.0062C44.1715 17.1295 43.4112 15.5137 42.8558 14.3343C42.4633 13.4992 42.2661 13.0805 42.2661 11.9078C42.2661 10.7355 42.4633 10.3163 42.8558 9.48172C43.4112 8.30228 44.1715 6.68698 44.1715 3.81079C44.1715 1.70628 42.4652 0 40.3607 0C38.2562 0 36.5499 1.70628 36.5499 3.81079C36.5499 4.98308 36.3527 5.40227 35.9602 6.23683C35.4048 7.41627 34.6445 9.03157 34.6445 11.9078C34.6445 14.784 35.4048 16.3997 35.9602 17.5792C36.3527 18.4142 36.5499 18.8329 36.5499 20.0062C36.5499 21.1789 36.3527 21.5981 35.9602 22.4332C35.4043 23.6126 34.6445 25.2284 34.6445 28.1046Z" fill="white"/>
<path d="M49.8877 28.1046C49.8877 30.2091 51.594 31.9154 53.6985 31.9154C55.803 31.9154 57.5093 30.2091 57.5093 28.1046C57.5093 26.9318 57.7065 26.5131 58.099 25.6781C58.6544 24.4981 59.4147 22.8828 59.4147 20.0062C59.4147 17.1295 58.6544 15.5137 58.099 14.3343C57.7065 13.4992 57.5093 13.0805 57.5093 11.9078C57.5093 10.7355 57.7065 10.3163 58.099 9.48172C58.6544 8.30228 59.4147 6.68698 59.4147 3.81079C59.4147 1.70628 57.7084 0 55.6039 0C53.4994 0 51.7931 1.70628 51.7931 3.81079C51.7931 4.98308 51.5959 5.40227 51.2034 6.23683C50.6479 7.41627 49.8877 9.03157 49.8877 11.9078C49.8877 14.784 50.6479 16.3997 51.2034 17.5792C51.5959 18.4142 51.7931 18.8329 51.7931 20.0062C51.7931 21.1789 51.5959 21.5981 51.2034 22.4332C50.6475 23.6126 49.8877 25.2284 49.8877 28.1046Z" fill="white"/>
<path d="M65.1309 28.1046C65.1309 30.2091 66.8371 31.9154 68.9417 31.9154C71.0462 31.9154 72.7524 30.2091 72.7524 28.1046C72.7524 26.9318 72.9496 26.5131 73.3422 25.6781C73.8976 24.4981 74.6578 22.8828 74.6578 20.0062C74.6578 17.1295 73.8976 15.5137 73.3422 14.3343C72.9496 13.4992 72.7524 13.0805 72.7524 11.9078C72.7524 10.7355 72.9496 10.3163 73.3422 9.48172C73.8976 8.30228 74.6578 6.68698 74.6578 3.81079C74.6578 1.70628 72.9516 0 70.847 0C68.7425 0 67.0363 1.70628 67.0363 3.81079C67.0363 4.98308 66.839 5.40227 66.4465 6.23683C65.8911 7.41627 65.1309 9.03157 65.1309 11.9078C65.1309 14.784 65.8911 16.3997 66.4465 17.5792C66.839 18.4142 67.0363 18.8329 67.0363 20.0062C67.0363 21.1789 66.839 21.5981 66.4465 22.4332C65.8906 23.6126 65.1309 25.2284 65.1309 28.1046Z" fill="white"/>
</g>
</svg>
