<svg width="1157" height="414" viewBox="0 0 1157 414" fill="none" xmlns="http://www.w3.org/2000/svg">
<path d="M375.507 113.884C374.99 113.914 374.463 113.946 373.938 113.988" stroke="white" stroke-width="2" stroke-linecap="round" stroke-linejoin="round"/>
<path d="M380.56 113.861C380.05 113.773 379.529 113.686 379.008 113.609" stroke="white" stroke-width="2" stroke-linecap="round" stroke-linejoin="round"/>
<path d="M370.8 114.666C348.009 116.062 323.693 126.75 305.092 138.05C293.368 145.17 281.716 154.442 273.249 164.874C249.798 193.753 253.594 235.104 218.803 257.469C206.814 265.176 187.176 269.738 181.054 253.912C175.981 239.867 196.542 225.075 210.438 233.343C226.107 243.211 219.706 267.536 210.003 279.407C188.108 304.977 138.672 315.27 108.059 305.883C75.1249 295.669 47.6494 234 11.7622 238.763" stroke="white" stroke-width="2" stroke-linecap="round" stroke-linejoin="round" stroke-dasharray="2.98 2.98"/>
<path d="M383.071 115.359C383.541 115.577 384.021 115.798 384.504 116.01" stroke="white" stroke-width="2" stroke-linecap="round" stroke-linejoin="round"/>
<path d="M386.737 117.374C401.821 134.519 425.362 146.876 445.9 154.313C458.843 159.001 473.485 162.244 487.114 162.216C524.855 162.148 556.012 132.457 595.42 145.573C609 150.092 624.718 162.699 615.651 177.759C607.386 190.84 582.821 184.105 581.007 167.766C579.404 148.99 603.018 138.361 618.57 138.384C652.679 139.219 691.279 171.721 702.421 202.019C714.315 234.689 681.206 296.242 707.034 321.584C733.133 347.194 774.068 341.227 787.181 287.428" stroke="white" stroke-width="2" stroke-linecap="round" stroke-linejoin="round" stroke-dasharray="2.98 2.98"/>
<path d="M987.711 134.771C988.148 134.521 988.59 134.294 989.031 134.066" stroke="white" stroke-width="2" stroke-linecap="round" stroke-linejoin="round"/>
<path d="M993.662 132.153C1015.49 125.015 1041.23 141.691 1050.74 162.731C1056.8 176.501 1054.5 204.754 1037.53 209.857C1012.15 217.047 1019.13 186.151 1027.87 175.534C1053.66 143.148 1110.74 140.683 1129.43 181.591C1150.37 226.65 1092.24 271.373 1053.04 272.208C1020.49 273.084 990.896 251.043 960.139 243.127C931.642 236.027 888.518 233.591 859.62 239.606C833.887 244.97 813.183 265.724 791.493 279.367" stroke="white" stroke-width="2" stroke-linecap="round" stroke-linejoin="round" stroke-dasharray="3.01 3.01"/>
<path d="M789.831 282.204C789.615 282.658 789.399 283.111 789.186 283.555" stroke="white" stroke-width="2" stroke-linecap="round" stroke-linejoin="round"/>
<path d="M895.633 81.3032C894.527 81.7612 893.886 82.925 894.091 84.1053C897.568 104.188 910.158 118.519 928.005 128.012C933.113 130.729 938.305 132.864 943.208 134.551C944.416 139.46 948.17 144.203 953.089 146.911L962.059 151.85C963.074 152.409 964.338 152.216 965.14 151.381C965.943 150.545 966.083 149.275 965.484 148.283C964.583 146.795 963.319 144.319 962.472 141.834C962.163 140.926 961.954 140.157 961.819 139.507C965.215 140.186 968.029 140.646 968.761 140.856C969.91 141.185 971.134 140.677 971.71 139.63L974.568 134.44C984.253 137.982 988.372 136.893 988.945 136.704C990.16 136.306 991.033 135.015 990.573 133.43C990.175 132.057 988.452 128.289 981.052 122.664L984.058 117.205C984.639 116.15 984.406 114.833 983.499 114.041C982.881 113.502 981.08 111.501 978.813 109.133C980.879 108.484 984.016 107.881 988.334 107.294C990.784 106.962 991.37 103.697 989.225 102.515L980.254 97.5756C975.629 95.0287 969.7 94.4926 964.747 96.0943C960.507 92.6736 955.678 89.2361 950.385 86.2538C932.861 76.3797 914.214 73.606 895.633 81.3032ZM899.527 85.2734C904.715 83.3446 909.975 82.2741 915.302 82.0527C915.225 85.3583 914.209 88.8627 912.311 92.312C910.404 95.7741 907.975 98.5138 905.21 100.345C902.567 95.7221 900.67 90.698 899.527 85.2734ZM957.652 143.579L955.558 142.426C953.028 141.033 950.875 138.89 949.505 136.536C951.993 137.252 954.346 137.851 956.503 138.356C956.614 140.07 957.067 141.879 957.652 143.579ZM968.143 135.495C966.939 135.267 965.436 135.005 962.861 134.47L965.161 130.296C966.802 131.126 968.344 131.857 969.792 132.499L968.143 135.495ZM963.718 123.743C961.408 122.471 960.583 120.848 959.918 118.727C962.011 118.171 963.884 117.99 966.187 119.258C976.033 124.68 980.958 128.924 983.386 131.612C979.75 130.993 973.463 129.11 963.718 123.743ZM978.646 116.419L976.845 119.69C975.526 118.817 974.081 117.91 972.498 116.969L974.945 112.525C976.811 114.44 977.54 115.253 978.646 116.419ZM977.785 102.061L980.324 103.459C977.893 103.991 976.171 104.549 974.896 105.163C973.354 103.65 971.63 102.021 969.742 100.337C972.512 100.171 975.418 100.757 977.785 102.061ZM971.17 108.767L968.038 114.453C963.504 112.231 960.08 113.355 956.039 114.526C954.681 114.92 953.899 116.34 954.293 117.698C955.387 121.473 956.237 125.164 960.648 127.876L957.658 133.306C934.169 127.652 917.556 118.063 907.974 104.656C911.456 102.366 914.474 98.9978 916.796 94.7811C919.107 90.584 920.339 86.2514 920.422 82.0998C936.802 83.0833 953.778 91.9938 971.17 108.767Z" fill="white" fill-opacity="0.9"/>
<path d="M921.28 97.2509C917.876 103.434 920.137 111.234 926.319 114.638C932.502 118.042 940.302 115.781 943.706 109.599C947.11 103.417 944.85 95.6168 938.667 92.2122C932.485 88.8081 924.685 91.0685 921.28 97.2509ZM936.198 96.6973C939.907 98.74 941.264 103.42 939.221 107.129C937.178 110.839 932.498 112.195 928.789 110.153C925.08 108.11 923.723 103.431 925.765 99.7205C927.808 96.0109 932.488 94.6547 936.198 96.6973Z" fill="white" fill-opacity="0.9"/>
</svg>
