<svg width="370" height="353" viewBox="0 0 370 353" fill="none" xmlns="http://www.w3.org/2000/svg">
<path d="M119.633 23.9449C118.527 24.4029 117.886 25.5667 118.09 26.747C121.568 46.8301 134.158 61.1605 152.005 70.6537C157.113 73.3704 162.305 75.5061 167.207 77.1927C168.416 82.1013 172.17 86.8443 177.088 89.5526L186.059 94.4919C187.074 95.0508 188.338 94.858 189.14 94.0223C189.943 93.1866 190.083 91.9167 189.484 90.9243C188.583 89.4364 187.319 86.9605 186.472 84.4756C186.162 83.5673 185.954 82.7982 185.819 82.1483C189.215 82.8277 192.029 83.2873 192.761 83.4978C193.91 83.827 195.133 83.319 195.71 82.2719L198.568 77.0815C208.253 80.6234 212.371 79.5346 212.945 79.3462C214.16 78.9476 215.032 77.6571 214.573 76.0718C214.175 74.699 212.452 70.9308 205.052 65.3059L208.058 59.8463C208.639 58.7917 208.406 57.4747 207.499 56.6825C206.881 56.1439 205.08 54.143 202.812 51.7747C204.879 51.1258 208.016 50.5229 212.334 49.9357C214.784 49.6034 215.37 46.3386 213.224 45.1566L204.254 40.2173C199.629 37.6704 193.699 37.1343 188.747 38.736C184.507 35.3154 179.678 31.8778 174.385 28.8955C156.86 19.0214 138.214 16.2478 119.633 23.9449ZM123.527 27.9152C128.715 25.9863 133.975 24.9158 139.301 24.6944C139.225 28 138.209 31.5044 136.31 34.9538C134.404 38.4158 131.974 41.1555 129.21 42.9867C126.567 38.3638 124.67 33.3397 123.527 27.9152ZM181.652 86.2203L179.558 85.0682C177.028 83.6742 174.875 81.5316 173.504 79.1776C175.993 79.8937 178.346 80.4932 180.503 80.998C180.614 82.7113 181.067 84.5207 181.652 86.2203ZM192.143 78.1363C190.938 77.9085 189.435 77.6466 186.861 77.1121L189.16 72.9373C190.802 73.7672 192.344 74.4987 193.791 75.1412L192.143 78.1363ZM187.718 66.385C185.408 65.1125 184.583 63.4894 183.918 61.3687C186.011 60.8128 187.884 60.6317 190.187 61.8999C200.033 67.3212 204.958 71.5657 207.386 74.2539C203.749 73.6344 197.463 71.7513 187.718 66.385ZM202.646 59.0612L200.845 62.3317C199.526 61.4591 198.081 60.5515 196.498 59.611L198.945 55.1672C200.811 57.082 201.54 57.8951 202.646 59.0612ZM201.785 44.7031L204.324 46.1007C201.893 46.6325 200.171 47.1911 198.895 47.805C197.353 46.2919 195.63 44.6627 193.742 42.9791C196.512 42.8123 199.418 43.3992 201.785 44.7031ZM195.17 51.409L192.038 57.0951C187.503 54.8731 184.08 55.9971 180.039 57.1681C178.681 57.5616 177.899 58.9812 178.293 60.3393C179.387 64.1144 180.237 67.806 184.648 70.518L181.658 75.9479C158.168 70.294 141.555 60.7046 131.973 47.2981C135.455 45.0078 138.473 41.6395 140.795 37.4228C143.107 33.2257 144.339 28.8931 144.422 24.7415C160.801 25.725 177.778 34.6355 195.17 51.409Z" fill="white" fill-opacity="0.9"/>
<path d="M145.28 39.8926C141.876 46.0755 144.137 53.8754 150.319 57.2795C156.502 60.6834 164.302 58.4231 167.706 52.2409C171.11 46.0587 168.85 38.2586 162.667 34.854C156.485 31.4499 148.685 33.7103 145.28 39.8926V39.8926ZM160.197 39.3391C163.907 41.3817 165.263 46.0622 163.221 49.7712C161.178 53.4809 156.498 54.8371 152.788 52.7944C149.08 50.7522 147.723 46.0726 149.765 42.3623C151.808 38.6526 156.488 37.2964 160.197 39.3391Z" fill="white" fill-opacity="0.9"/>
<path d="M211.001 77.6792C233.149 71.5965 258.054 89.4889 266.548 110.961C271.938 125.006 268.282 153.116 251.091 157.399C225.398 163.362 233.852 132.837 243.087 122.651C270.399 91.5403 327.531 91.8178 344.244 133.576C362.996 179.588 302.789 221.47 263.586 220.422C231.038 219.736 202.532 196.299 172.191 186.917C144.068 178.457 101.11 173.954 71.957 178.576C45.9955 182.698 24.3198 202.434 1.99999 215.021" stroke="white" stroke-width="2" stroke-linecap="round" stroke-linejoin="round" stroke-dasharray="3.01 3.01"/>
</svg>
