<svg width="455" height="232" viewBox="0 0 455 232" fill="none" xmlns="http://www.w3.org/2000/svg">
<path d="M425.576 2.17676C425.058 2.16639 424.53 2.15815 424.004 2.15937" stroke="white" stroke-width="2" stroke-linecap="round" stroke-linejoin="round"/>
<path d="M418.801 2.30668C396.01 3.70273 371.694 14.3904 353.092 25.6908C341.369 32.811 329.717 42.0833 321.25 52.5147C297.799 81.394 301.595 122.745 266.804 145.11C254.815 152.817 235.177 157.379 229.055 141.552C223.982 127.508 244.543 112.716 258.439 120.983C274.108 130.852 267.707 155.176 258.004 167.047C236.109 192.618 186.673 202.911 156.06 193.524C123.126 183.31 95.6504 121.641 59.7631 126.404C23.4992 131.216 2.66776 166.022 36.5387 207.829" stroke="white" stroke-width="2" stroke-linecap="round" stroke-linejoin="round" stroke-dasharray="2.98 2.98"/>
<path d="M38.0916 209.713C38.2074 209.856 38.3315 209.988 38.4473 210.131L39.269 210.62" stroke="white" stroke-width="2" stroke-linecap="round" stroke-linejoin="round"/>
</svg>
