<svg width="436" height="388" viewBox="0 0 436 388" fill="none" xmlns="http://www.w3.org/2000/svg">
<path d="M433.78 269.964C433.457 269.559 433.125 269.147 432.787 268.743" stroke="white" stroke-width="2" stroke-linecap="round" stroke-linejoin="round"/>
<path d="M429.34 264.84C413.651 248.247 389.681 236.742 368.89 230.048C355.787 225.827 341.039 223.112 327.419 223.63C289.705 225.052 259.634 255.842 219.78 244.149C206.046 240.12 189.887 228.086 198.407 212.71C206.197 199.341 230.988 205.19 233.387 221.453C235.663 240.159 212.446 251.629 196.903 252.165C162.787 252.554 123.044 221.458 110.822 191.58C97.7628 159.358 128.641 96.6565 101.92 72.2573C74.9192 47.6012 34.2247 55.0331 23.0512 109.269" stroke="white" stroke-width="2" stroke-linecap="round" stroke-linejoin="round" stroke-dasharray="2.98 2.98"/>
<path d="M22.5647 111.733C22.5262 111.918 22.5021 112.103 22.4636 112.288L22.6055 113.25" stroke="white" stroke-width="2" stroke-linecap="round" stroke-linejoin="round"/>
</svg>
