<svg width="370" height="353" viewBox="0 0 370 353" fill="none" xmlns="http://www.w3.org/2000/svg">
<path d="M119.633 23.9448C118.527 24.4028 117.886 25.5666 118.09 26.7469C121.568 46.83 134.158 61.1603 152.005 70.6536C157.113 73.3703 162.305 75.506 167.207 77.1926C168.416 82.1012 172.17 86.8442 177.088 89.5525L186.059 94.4918C187.074 95.0507 188.338 94.8578 189.14 94.0222C189.943 93.1865 190.083 91.9166 189.484 90.9242C188.583 89.4363 187.319 86.9604 186.472 84.4755C186.162 83.5672 185.954 82.7981 185.819 82.1482C189.215 82.8276 192.029 83.2872 192.761 83.4977C193.91 83.8269 195.133 83.3189 195.71 82.2717L198.568 77.0814C208.253 80.6233 212.371 79.5345 212.945 79.3461C214.16 78.9475 215.032 77.657 214.573 76.0717C214.175 74.6989 212.452 70.9307 205.052 65.3058L208.058 59.8462C208.639 58.7916 208.406 57.4746 207.499 56.6824C206.881 56.1438 205.08 54.1429 202.812 51.7746C204.879 51.1257 208.016 50.5228 212.334 49.9355C214.784 49.6033 215.37 46.3385 213.224 45.1565L204.254 40.2172C199.629 37.6703 193.699 37.1342 188.747 38.7359C184.507 35.3152 179.678 31.8777 174.385 28.8954C156.86 19.0213 138.214 16.2477 119.633 23.9448ZM123.527 27.915C128.715 25.9862 133.975 24.9157 139.301 24.6943C139.225 27.9999 138.209 31.5043 136.31 34.9536C134.404 38.4157 131.974 41.1554 129.21 42.9866C126.567 38.3637 124.67 33.3396 123.527 27.915ZM181.652 86.2202L179.558 85.0681C177.028 83.6741 174.875 81.5315 173.504 79.1775C175.993 79.8936 178.346 80.4931 180.503 80.9979C180.614 82.7112 181.067 84.5206 181.652 86.2202ZM192.143 78.1362C190.938 77.9084 189.435 77.6464 186.861 77.112L189.16 72.9372C190.802 73.7671 192.344 74.4986 193.791 75.1411L192.143 78.1362ZM187.718 66.3849C185.408 65.1124 184.583 63.4893 183.918 61.3686C186.011 60.8127 187.884 60.6316 190.187 61.8998C200.033 67.3211 204.958 71.5656 207.386 74.2538C203.749 73.6343 197.463 71.7512 187.718 66.3849ZM202.646 59.0611L200.845 62.3316C199.526 61.459 198.081 60.5514 196.498 59.6109L198.945 55.1671C200.811 57.0819 201.54 57.895 202.646 59.0611ZM201.785 44.703L204.324 46.1006C201.893 46.6324 200.171 47.191 198.895 47.8049C197.353 46.2918 195.63 44.6626 193.742 42.979C196.512 42.8122 199.418 43.3991 201.785 44.703ZM195.17 51.4089L192.038 57.095C187.503 54.873 184.08 55.997 180.039 57.168C178.681 57.5615 177.899 58.9811 178.293 60.3392C179.387 64.1143 180.237 67.8059 184.648 70.5179L181.658 75.9478C158.168 70.2938 141.555 60.7045 131.973 47.298C135.455 45.0077 138.473 41.6394 140.795 37.4227C143.107 33.2256 144.339 28.893 144.422 24.7414C160.801 25.7249 177.778 34.6354 195.17 51.4089Z" fill="white" fill-opacity="0.9"/>
<path d="M145.28 39.8925C141.876 46.0753 144.137 53.8753 150.319 57.2794C156.502 60.6833 164.301 58.4229 167.706 52.2407C171.11 46.0585 168.85 38.2584 162.667 34.8538C156.485 31.4497 148.685 33.7101 145.28 39.8925ZM160.197 39.3389C163.907 41.3816 165.263 46.0621 163.22 49.7711C161.178 53.4807 156.498 54.8369 152.788 52.7943C149.08 50.7521 147.723 46.0724 149.765 42.3621C151.808 38.6525 156.488 37.2963 160.197 39.3389Z" fill="white" fill-opacity="0.9"/>
<path d="M211.001 77.6791C233.148 71.5964 258.054 89.4888 266.548 110.961C271.938 125.006 268.282 153.116 251.09 157.398C225.398 163.362 233.851 132.837 243.087 122.651C270.399 91.5402 327.531 91.8177 344.244 133.576C362.996 179.588 302.789 221.47 263.586 220.422C231.038 219.736 202.532 196.299 172.191 186.917C144.068 178.457 101.11 173.954 71.9568 178.576C45.9953 182.698 24.3196 202.434 1.99974 215.021" stroke="white" stroke-width="2" stroke-linecap="round" stroke-linejoin="round" stroke-dasharray="3.01 3.01"/>
</svg>
