<svg width="125" height="127" viewBox="0 0 125 127" fill="none" xmlns="http://www.w3.org/2000/svg">
<g opacity="0.15">
<path d="M117.77 4.19213C117.474 2.32 115.92 0.902006 114.028 0.780004C81.8291 -1.30225 55.1115 12.7705 33.8925 36.7265C27.8201 43.5825 22.6108 50.7833 18.1999 57.7044C10.1973 57.7476 1.50744 61.7694 -4.48214 68.3374L-15.4054 80.3156C-16.6413 81.6709 -16.8125 83.6881 -15.8233 85.2325C-14.8341 86.7768 -12.9315 87.4636 -11.1823 86.9087C-8.55859 86.0726 -4.27987 85.0441 -0.141535 84.6601C1.37115 84.5197 2.63194 84.4838 3.68244 84.5157C1.3794 89.4919 -0.369624 93.6524 -0.964671 94.7014C-1.89666 96.348 -1.56778 98.4193 -0.169477 99.6945L6.76137 106.015C-2.27559 119.61 -2.12452 126.353 -2.04684 127.305C-1.88311 129.323 -0.219871 131.144 2.39032 131.023C4.65053 130.919 11.0886 129.661 22.4856 120.354L29.776 127.003C31.1842 128.287 33.2977 128.416 34.8527 127.313C35.9104 126.562 39.657 124.53 44.1416 121.916C44.3753 125.338 44.1421 130.389 43.4472 137.253C43.0519 141.146 47.8598 143.257 50.4735 140.392L61.3967 128.414C67.0293 122.238 70.0493 113.31 69.4174 105.095C76.2521 99.8347 83.3307 93.675 89.8805 86.6322C111.566 63.314 122.738 35.6405 117.77 4.19213ZM110.217 8.71505C111.266 17.414 110.966 25.9068 109.335 34.1873C104.275 32.8463 99.2574 29.9852 94.6512 25.7857C90.0284 21.569 86.7109 16.8158 84.9159 11.8825C93.0096 9.52674 101.445 8.46627 110.217 8.71505ZM-1.04234 76.5945L1.50589 73.7991C4.58822 70.4202 8.68308 67.9 12.8138 66.6617C10.7901 70.2275 8.99651 73.6262 7.42095 76.7593C4.74269 76.2964 1.79015 76.3236 -1.04234 76.5945ZM7.51646 95.7348C8.31285 93.9656 9.27248 91.7494 11.0482 87.9848L16.6227 93.0694C14.7377 95.2881 13.0408 97.3914 11.5161 99.3812L7.51646 95.7348ZM27.2419 93.2743C30.0557 90.1898 32.8593 89.5208 36.3695 89.2831C36.4502 92.7107 36.0357 95.6603 33.231 98.7359C21.2418 111.883 12.8854 117.892 7.84893 120.634C10.1487 115.266 15.3744 106.288 27.2419 93.2743ZM32.988 118.963L28.621 114.98C30.4524 113.273 32.3843 111.385 34.4179 109.296L40.3518 114.708C36.7138 116.871 35.1923 117.692 32.988 118.963ZM55.4066 122.953L52.3153 126.344C52.3969 122.405 52.1744 119.548 51.7017 117.357C54.6015 115.544 57.7472 113.494 61.0374 111.212C60.2689 115.536 58.2898 119.792 55.4066 122.953ZM47.5338 110.288L39.9412 103.364C45.0401 97.2063 44.5775 91.5207 44.2711 84.8677C44.1681 82.6317 42.2724 80.903 40.0365 81.006C33.8209 81.2923 27.824 81.2347 22.017 87.0189L14.7664 80.4069C32.1646 46.3457 53.0745 24.3256 77.2567 14.5405C79.4928 20.7475 83.56 26.64 89.1906 31.7748C94.7949 36.8865 101.007 40.3866 107.367 42.0512C99.7893 66.8979 79.7895 89.7297 47.5338 110.288Z" fill="white"/>
<path d="M83.729 37.7628C75.4727 30.2346 62.6304 30.8262 55.1022 39.0815C47.5741 47.3378 48.1656 60.18 56.4209 67.7082C64.6761 75.2364 77.5184 74.6459 85.0476 66.3895C92.5758 58.1343 91.9843 45.292 83.729 37.7628ZM79.0586 60.9279C74.5412 65.8815 66.835 66.2365 61.8825 61.7191C56.9289 57.2018 56.574 49.4967 61.0913 44.5431C65.6076 39.5906 73.3127 39.2346 78.2674 43.7519C83.2209 48.2692 83.5759 55.9743 79.0586 60.9279Z" fill="white"/>
</g>
</svg>
