<svg width="503" height="503" viewBox="0 0 503 503" fill="none" xmlns="http://www.w3.org/2000/svg">
<path d="M478.653 14.5648C477.627 8.06051 472.228 3.13396 465.653 2.71009C353.785 -4.52427 260.96 44.3687 187.239 127.599C166.141 151.419 148.043 176.437 132.718 200.482C104.914 200.633 74.7233 214.605 53.9137 237.425L15.9631 279.04C11.6691 283.749 11.0744 290.758 14.5111 296.123C17.9478 301.489 24.5579 303.875 30.6353 301.947C39.7509 299.042 54.6164 295.469 68.9942 294.135C74.2498 293.647 78.6301 293.522 82.2799 293.633C74.2784 310.922 68.2018 325.377 66.1344 329.021C62.8964 334.742 64.0391 341.938 68.8972 346.369L92.977 368.328C61.5799 415.562 62.1048 438.988 62.3747 442.297C62.9435 449.307 68.7221 455.633 77.7907 455.215C85.6433 454.853 108.011 450.483 147.608 418.147L172.937 441.245C177.829 445.707 185.172 446.154 190.575 442.323C194.25 439.713 207.266 432.653 222.847 423.574C223.659 435.462 222.849 453.011 220.435 476.858C219.061 490.384 235.765 497.719 244.846 487.765L282.796 446.149C302.366 424.69 312.858 393.673 310.663 365.131C334.409 346.856 359.002 325.455 381.758 300.986C457.1 219.972 495.916 123.826 478.653 14.5648ZM452.414 30.2788C456.056 60.5017 455.015 90.0081 449.348 118.777C431.769 114.118 414.336 104.178 398.333 89.5874C382.272 74.9374 370.746 58.4231 364.509 41.2835C392.629 33.0989 421.936 29.4145 452.414 30.2788ZM65.8646 266.112L74.7179 256.4C85.4268 244.661 99.6536 235.905 114.005 231.603C106.974 243.991 100.743 255.8 95.2686 266.685C85.9635 265.076 75.7055 265.171 65.8646 266.112ZM95.6004 332.611C98.3673 326.465 101.701 318.765 107.871 305.686L127.238 323.351C120.689 331.059 114.794 338.367 109.496 345.28L95.6004 332.611ZM164.133 324.063C173.909 313.346 183.649 311.022 195.844 310.196C196.125 322.105 194.685 332.353 184.94 343.038C143.286 388.715 114.254 409.593 96.7555 419.12C104.746 400.47 122.901 369.276 164.133 324.063ZM184.096 413.313L168.924 399.474C175.287 393.543 181.999 386.983 189.064 379.728L209.68 398.529C197.041 406.044 191.755 408.897 184.096 413.313ZM261.985 427.174L251.245 438.955C251.528 425.27 250.756 415.344 249.113 407.734C259.188 401.434 270.117 394.313 281.548 386.384C278.878 401.408 272.002 416.194 261.985 427.174ZM234.633 383.175L208.254 359.116C225.969 337.724 224.362 317.97 223.297 294.856C222.939 287.087 216.353 281.081 208.585 281.439C186.99 282.434 166.155 282.234 145.98 302.33L120.789 279.358C181.236 161.019 253.883 84.5146 337.899 50.518C345.668 72.0833 359.798 92.5553 379.361 110.395C398.832 128.155 420.416 140.315 442.51 146.099C416.184 232.423 346.698 311.748 234.633 383.175Z" fill="white" fill-opacity="0.15"/>
<path d="M360.385 131.199C331.7 105.044 287.083 107.099 260.927 135.78C234.772 164.465 236.828 209.083 265.509 235.238C294.19 261.394 338.808 259.342 364.967 230.657C391.122 201.976 389.067 157.358 360.385 131.199ZM344.159 211.682C328.464 228.892 301.691 230.125 284.484 214.431C267.274 198.736 266.041 171.966 281.735 154.756C297.426 137.549 324.196 136.313 341.41 152.007C358.62 167.701 359.853 194.471 344.159 211.682Z" fill="white" fill-opacity="0.25"/>
</svg>
