<svg width="123" height="149" viewBox="0 0 123 149" fill="none" xmlns="http://www.w3.org/2000/svg">
<path opacity="0.15" d="M120.413 29.2887C118.744 27.6299 116.526 26.7161 114.166 26.7161C112.935 26.7161 111.743 26.9648 110.646 27.4383L101.378 18.2231C102.524 13.3926 101.206 8.09699 97.4248 4.33704H97.4244C93.8152 0.749336 88.6808 -0.740838 83.6895 0.350989C82.8187 0.541615 82.0654 1.07995 81.606 1.83955C81.147 2.59915 81.0221 3.51325 81.2615 4.36736C82.0758 7.27159 81.2534 10.3961 79.1148 12.522L55.1571 36.3413C52.3453 39.1368 50.7968 42.8535 50.7968 46.807C50.7971 50.7605 52.3453 54.4772 55.1571 57.2724C58.7657 60.8607 63.8985 62.3512 68.8917 61.2591C69.7625 61.0685 70.5158 60.5301 70.9752 59.7705C71.2351 59.3409 71.3876 58.8616 71.4281 58.3716L75.0474 61.97L2.5873 134.011C0.918777 135.67 0 137.875 0 140.222C0 142.567 0.918777 144.773 2.5873 146.432C4.30969 148.144 6.57159 149 8.83382 149C11.0961 149 13.358 148.144 15.0803 146.432L120.413 41.7094C122.081 40.0502 123 37.845 123 35.4991C123 33.1529 122.081 30.9476 120.413 29.2887ZM97.4244 25.2691C97.7385 24.9569 98.0357 24.6337 98.3157 24.3015L105.626 31.5695L102.569 34.6082L95.3001 27.3812L97.4244 25.2691ZM87.6556 34.9814L90.7121 31.9427L97.9812 39.1697L94.9247 42.2081L87.6556 34.9814ZM90.3367 46.7699L87.2803 49.8086L80.0115 42.5816L83.0676 39.5429L90.3367 46.7699ZM68.8791 44.5262C67.412 45.9845 66.2941 47.7072 65.5583 49.5699C65.4969 49.7038 65.4447 49.8412 65.4029 49.9809C64.8143 51.6097 64.5143 53.3363 64.5233 55.0794C62.7396 54.8346 61.0623 54.0208 59.7455 52.7112C58.159 51.134 57.2854 49.0371 57.2854 46.807C57.2854 44.5766 58.159 42.48 59.7455 40.9027L83.7028 17.0835C86.5471 14.2564 88.0787 10.4348 88.0586 6.53069C89.8416 6.77551 91.5196 7.5893 92.8364 8.89852C96.1112 12.154 96.1112 17.4515 92.8364 20.707L80.8011 32.6729C80.7917 32.6819 80.7823 32.691 80.7732 32.7C80.7642 32.709 80.7551 32.7184 80.746 32.7278L68.8791 44.5262ZM72.4698 50.2847C72.7609 49.8599 73.094 49.4587 73.4668 49.0881L75.4228 47.1434L82.6919 54.3704L79.6355 57.4091L72.4698 50.2847ZM115.824 37.1476L10.492 141.87C9.57773 142.779 8.08991 142.779 7.17535 141.87C6.26112 140.961 6.26112 139.482 7.17535 138.573L97.2162 49.0529C97.2171 49.0522 97.2178 49.0513 97.2188 49.0506C97.2194 49.0497 97.2204 49.049 97.221 49.048L112.508 33.8502C113.422 32.9416 114.909 32.941 115.825 33.8502C116.267 34.2905 116.511 34.8762 116.511 35.4988C116.511 36.1219 116.267 36.7074 115.824 37.1476Z" fill="white"/>
</svg>
